<svg aria-hidden="true" style="position: absolute; width: 0; height: 0; overflow: hidden;" version="1.1" xmlns="http://www.w3.org/2000/svg" xmlns:xlink="http://www.w3.org/1999/xlink">
<defs>
<symbol id="icon-access_alarmalarm" viewBox="0 0 32 32">
<path d="M16 26.688q3.875 0 6.593-2.751t2.719-6.625-2.719-6.593-6.593-2.719-6.593 2.719-2.719 6.593 2.719 6.625 6.593 2.751zM16 5.312q5 0 8.5 3.531t3.5 8.469-3.5 8.469-8.5 3.531-8.5-3.531-3.5-8.469 3.5-8.469 8.5-3.531zM16.688 10.688v7l5.312 3.125-1 1.625-6.312-3.751v-8h2zM10.5 4.5l-6.125 5.125-1.688-2 6.125-5.125zM29.312 7.625l-1.688 2.063-6.125-5.188 1.688-2z"></path>
</symbol>
<symbol id="icon-access_alarms" viewBox="0 0 32 32">
<path d="M16 26.688q3.875 0 6.593-2.751t2.719-6.625-2.719-6.593-6.593-2.719-6.593 2.719-2.719 6.593 2.719 6.625 6.593 2.751zM16 5.312q5 0 8.5 3.5t3.5 8.5-3.5 8.5-8.5 3.5-8.5-3.5-3.5-8.5 3.5-8.5 8.5-3.5zM16.688 10.688v7.063l5.312 3.188-1.063 1.625-6.251-3.875v-8h2zM10.563 4.563l-6.188 5.063-1.688-2 6.125-5.063zM29.312 7.625l-1.688 2-6.188-5.251 1.751-2z"></path>
</symbol>
<symbol id="icon-access_timequery_builderschedule" viewBox="0 0 32 32">
<path d="M16.688 9.312v7l6 3.563-1 1.688-7-4.251v-8h2zM16 26.688q4.375 0 7.531-3.156t3.156-7.531-3.156-7.531-7.531-3.156-7.531 3.156-3.156 7.531 3.156 7.531 7.531 3.156zM16 2.688q5.5 0 9.407 3.907t3.907 9.407-3.907 9.407-9.407 3.907-9.407-3.907-3.907-9.407 3.907-9.407 9.407-3.907z"></path>
</symbol>
<symbol id="icon-account_box" viewBox="0 0 32 32">
<path d="M8 22.688v1.312h16v-1.312q0-1.812-2.751-2.969t-5.251-1.156-5.251 1.156-2.751 2.969zM20 12q0-1.625-1.188-2.812t-2.812-1.188-2.812 1.188-1.188 2.812 1.188 2.812 2.812 1.188 2.812-1.188 1.188-2.812zM4 6.688q0-1.125 0.781-1.907t1.907-0.781h18.625q1.063 0 1.875 0.812t0.812 1.875v18.625q0 1.063-0.812 1.875t-1.875 0.812h-18.625q-1.125 0-1.907-0.781t-0.781-1.907v-18.625z"></path>
</symbol>
<symbol id="icon-account_circle" viewBox="0 0 32 32">
<path d="M16 25.625q2.125 0 4.469-1.251t3.531-3.063q-0.063-1.751-2.812-2.937t-5.188-1.188-5.188 1.156-2.812 2.969q1.188 1.812 3.531 3.063t4.469 1.251zM16 6.688q-1.625 0-2.812 1.188t-1.188 2.812 1.188 2.812 2.812 1.188 2.812-1.188 1.188-2.812-1.188-2.812-2.812-1.188zM16 2.688q5.5 0 9.407 3.907t3.907 9.407-3.907 9.407-9.407 3.907-9.407-3.907-3.907-9.407 3.907-9.407 9.407-3.907z"></path>
</symbol>
<symbol id="icon-add_alert" viewBox="0 0 32 32">
<path d="M21.312 17.375v-2.688h-4v-4h-2.625v4h-4v2.688h4v4h2.625v-4h4zM25.188 22.437l2.812 2.812v1.437h-24v-1.437l2.812-2.812v-7.751q0-3 2.063-5.625t5-3.312v-0.937q0-0.875 0.625-1.5t1.5-0.625 1.5 0.625 0.625 1.5v0.937q3.063 0.688 5.063 3.219t2 5.719v7.751zM13.375 28h5.251q0 1.063-0.781 1.875t-1.844 0.812-1.844-0.812-0.781-1.875z"></path>
</symbol>
<symbol id="icon-add_chart" viewBox="0 0 32 32">
<path d="M24 25.312v-6.625h2.688v6.625q0 1.063-0.812 1.875t-1.875 0.812h-18.688q-1.063 0-1.844-0.812t-0.781-1.875v-18.625q0-1.063 0.781-1.875t1.844-0.812h16v2.688h-16v18.625h18.688zM26.688 9.312h4v2.688h-4v4h-2.688v-4h-4v-2.688h4v-4h2.688v4zM13.312 9.312h2.688v13.312h-2.688v-13.312zM18.688 17.312h2.625v5.312h-2.625v-5.312zM8 13.312h2.688v9.312h-2.688v-9.312z"></path>
</symbol>
<symbol id="icon-add2" viewBox="0 0 32 32">
<path d="M25.312 17.312h-8v8h-2.625v-8h-8v-2.625h8v-8h2.625v8h8v2.625z"></path>
</symbol>
<symbol id="icon-all_inbox" viewBox="0 0 32 32">
<path d="M20 21.312h8v4q0 1.063-0.812 1.875t-1.875 0.812h-18.625q-1.063 0-1.875-0.812t-0.812-1.875v-4h8q0 1.625 1.188 2.812t2.812 1.188 2.812-1.188 1.188-2.812zM25.312 12v-5.312h-18.625v5.312h5.312q0 1.625 1.188 2.812t2.812 1.188 2.812-1.188 1.188-2.812h5.312zM25.312 4q1.063 0 1.875 0.812t0.812 1.875v9.312q0 1.063-0.812 1.875t-1.875 0.812h-18.625q-1.063 0-1.875-0.812t-0.812-1.875v-9.312q0-1.063 0.812-1.875t1.875-0.812h18.625z"></path>
</symbol>
<symbol id="icon-arrow_back" viewBox="0 0 32 32">
<path d="M26.688 14.688v2.625h-16.251l7.437 7.5-1.875 1.875-10.688-10.688 10.688-10.688 1.875 1.875-7.437 7.5h16.251z"></path>
</symbol>
<symbol id="icon-arrow_drop_down" viewBox="0 0 32 32">
<path d="M9.312 13.312h13.375l-6.688 6.688z"></path>
</symbol>
<symbol id="icon-arrow_drop_up" viewBox="0 0 32 32">
<path d="M9.312 18.688l6.688-6.688 6.688 6.688h-13.375z"></path>
</symbol>
<symbol id="icon-arrow_forward" viewBox="0 0 32 32">
<path d="M16 5.312l10.688 10.688-10.688 10.688-1.875-1.875 7.437-7.5h-16.251v-2.625h16.251l-7.437-7.5z"></path>
</symbol>
<symbol id="icon-assignment_ind" viewBox="0 0 32 32">
<path d="M24 25.312v-1.875q0-1.812-2.751-2.969t-5.251-1.156-5.251 1.156-2.751 2.969v1.875h16zM16 9.312q-1.625 0-2.812 1.188t-1.188 2.812 1.188 2.812 2.812 1.188 2.812-1.188 1.188-2.812-1.188-2.812-2.812-1.188zM16 4q-0.563 0-0.937 0.375t-0.375 0.937 0.375 0.969 0.937 0.407 0.937-0.407 0.375-0.969-0.375-0.937-0.937-0.375zM25.312 4q1.063 0 1.875 0.812t0.812 1.875v18.625q0 1.063-0.812 1.875t-1.875 0.812h-18.625q-1.063 0-1.875-0.812t-0.812-1.875v-18.625q0-1.063 0.812-1.875t1.875-0.812h5.563q0.437-1.188 1.437-1.937t2.312-0.751 2.312 0.751 1.437 1.937h5.563z"></path>
</symbol>
<symbol id="icon-assignment" viewBox="0 0 32 32">
<path d="M22.688 12v-2.688h-13.375v2.688h13.375zM22.688 17.312v-2.625h-13.375v2.625h13.375zM18.688 22.688v-2.688h-9.375v2.688h9.375zM16 4q-0.563 0-0.937 0.375t-0.375 0.937 0.375 0.969 0.937 0.407 0.937-0.407 0.375-0.969-0.375-0.937-0.937-0.375zM25.312 4q1.063 0 1.875 0.812t0.812 1.875v18.625q0 1.063-0.812 1.875t-1.875 0.812h-18.625q-1.063 0-1.875-0.812t-0.812-1.875v-18.625q0-1.063 0.812-1.875t1.875-0.812h5.563q0.437-1.188 1.437-1.937t2.312-0.751 2.312 0.751 1.437 1.937h5.563z"></path>
</symbol>
<symbol id="icon-caret-down" viewBox="0 0 32 32">
<path d="M25.143 12.571c0 0.304-0.125 0.59-0.339 0.803l-8 8c-0.214 0.214-0.501 0.339-0.803 0.339s-0.59-0.125-0.803-0.339l-8-8c-0.214-0.214-0.339-0.501-0.339-0.803 0-0.625 0.518-1.143 1.143-1.143h16c0.625 0 1.143 0.518 1.143 1.143z"></path>
</symbol>
<symbol id="icon-caret-up" viewBox="0 0 32 32">
<path d="M25.143 21.714c0 0.625-0.518 1.143-1.143 1.143h-16c-0.625 0-1.143-0.518-1.143-1.143 0-0.304 0.125-0.59 0.339-0.803l8-8c0.214-0.214 0.501-0.339 0.803-0.339s0.59 0.125 0.803 0.339l8 8c0.214 0.214 0.339 0.501 0.339 0.803z"></path>
</symbol>
<symbol id="icon-chart-bar" viewBox="0 0 32 32">
<path d="M1.6 16h4.8v16h-4.8v-16zM9.6 0h4.8v32h-4.8v-32zM17.6 12.8h4.8v19.2h-4.8v-19.2zM25.6 6.4h4.8v25.6h-4.8v-25.6z"></path>
</symbol>
<symbol id="icon-check_box_outline_blank" viewBox="0 0 32 32">
<path d="M25.312 4q1.063 0 1.875 0.812t0.812 1.875v18.625q0 1.063-0.812 1.875t-1.875 0.812h-18.625q-1.063 0-1.875-0.812t-0.812-1.875v-18.625q0-1.063 0.812-1.875t1.875-0.812h18.625zM25.312 6.688h-18.625v18.625h18.625v-18.625z"></path>
</symbol>
<symbol id="icon-check_box" viewBox="0 0 32 32">
<path d="M13.312 22.688l12-12-1.875-1.937-10.125 10.125-4.751-4.751-1.875 1.875zM25.312 4q1.125 0 1.907 0.781t0.781 1.907v18.625q0 1.125-0.781 1.907t-1.907 0.781h-18.625q-1.125 0-1.907-0.781t-0.781-1.907v-18.625q0-1.125 0.781-1.907t1.907-0.781h18.625z"></path>
</symbol>
<symbol id="icon-check_circle" viewBox="0 0 32 32">
<path d="M13.312 22.688l12-12-1.875-1.937-10.125 10.125-4.751-4.751-1.875 1.875zM16 2.688q5.5 0 9.407 3.907t3.907 9.407-3.907 9.407-9.407 3.907-9.407-3.907-3.907-9.407 3.907-9.407 9.407-3.907z"></path>
</symbol>
<symbol id="icon-checkmark-outline" viewBox="0 0 32 32">
<path d="M4.688 27.312c-3.014-2.914-4.885-6.992-4.885-11.509 0-8.837 7.163-16 16-16 4.517 0 8.595 1.87 11.504 4.88l0.005 0.005c2.779 2.874 4.491 6.795 4.491 11.115 0 8.837-7.163 16-16 16-4.32 0-8.242-1.712-11.12-4.496l0.005 0.005zM25.056 25.056c2.318-2.318 3.75-5.52 3.75-9.056 0-7.074-5.734-12.806-12.806-12.806-3.536 0-6.738 1.434-9.056 3.75v0c-2.318 2.318-3.75 5.52-3.75 9.056 0 7.074 5.734 12.806 12.806 12.806 3.536 0 6.738-1.434 9.056-3.75v0zM10.72 14.864l3.68 3.696 6.88-6.88 2.24 2.272-9.12 9.088-5.92-5.92 2.24-2.272z"></path>
</symbol>
<symbol id="icon-clearclose" viewBox="0 0 32 32">
<path d="M25.312 8.563l-7.437 7.437 7.437 7.437-1.875 1.875-7.437-7.437-7.437 7.437-1.875-1.875 7.437-7.437-7.437-7.437 1.875-1.875 7.437 7.437 7.437-7.437z"></path>
</symbol>
<symbol id="icon-cloud_done" viewBox="0 0 32 32">
<path d="M13.312 22.688l8.812-8.812-1.875-1.875-6.937 6.875-2.751-2.751-1.875 1.875zM25.812 13.375q2.563 0.188 4.375 2.093t1.812 4.531q0 2.751-1.969 4.719t-4.719 1.969h-17.312q-3.312 0-5.656-2.344t-2.344-5.656q0-2.937 2.093-5.281t5.031-2.656q1.312-2.437 3.688-3.937t5.188-1.5q3.375 0 6.281 2.375t3.531 5.688z"></path>
</symbol>
<symbol id="icon-cloud_download" viewBox="0 0 32 32">
<path d="M22.688 17.312h-4v-5.312h-5.375v5.312h-4l6.688 6.688zM25.812 13.375q2.563 0.188 4.375 2.093t1.812 4.531q0 2.751-1.969 4.719t-4.719 1.969h-17.312q-3.312 0-5.656-2.344t-2.344-5.656q0-2.937 2.093-5.281t5.031-2.656q1.312-2.437 3.688-3.937t5.188-1.5q3.375 0 6.281 2.375t3.531 5.688z"></path>
</symbol>
<symbol id="icon-cloud_off" viewBox="0 0 32 32">
<path d="M10.312 13.312h-2.312q-2.188 0-3.751 1.593t-1.563 3.781 1.563 3.751 3.751 1.563h13zM4 7l1.688-1.688 22.312 22.312-1.688 1.688-2.688-2.625h-15.625q-3.312 0-5.656-2.344t-2.344-5.656q0-3.251 2.251-5.563t5.437-2.437zM25.812 13.375q2.563 0.188 4.375 2.093t1.812 4.531q0 3.437-2.812 5.437l-1.937-1.937q2.063-1.125 2.063-3.5 0-1.625-1.188-2.812t-2.812-1.188h-2v-0.688q0-3.063-2.125-5.188t-5.188-2.125q-1.751 0-3.375 0.812l-2-1.937q2.437-1.563 5.375-1.563 3.375 0 6.281 2.375t3.531 5.688z"></path>
</symbol>
<symbol id="icon-cloud_queue" viewBox="0 0 32 32">
<path d="M25.312 24q1.625 0 2.812-1.188t1.188-2.812-1.188-2.812-2.812-1.188h-2v-0.688q0-3.063-2.125-5.188t-5.188-2.125q-2.5 0-4.437 1.5t-2.625 3.812h-0.937q-2.188 0-3.751 1.593t-1.563 3.781 1.563 3.751 3.751 1.563h17.312zM25.812 13.375q2.563 0.188 4.375 2.093t1.812 4.531q0 2.751-1.969 4.719t-4.719 1.969h-17.312q-3.312 0-5.656-2.344t-2.344-5.656q0-2.937 2.093-5.281t5.031-2.656q1.312-2.437 3.688-3.937t5.188-1.5q3.375 0 6.281 2.375t3.531 5.688z"></path>
</symbol>
<symbol id="icon-cloud_uploadbackup" viewBox="0 0 32 32">
<path d="M18.688 17.312h4l-6.688-6.625-6.688 6.625h4v5.375h5.375v-5.375zM25.812 13.375q2.563 0.188 4.375 2.093t1.812 4.531q0 2.751-1.969 4.719t-4.719 1.969h-17.312q-3.312 0-5.656-2.344t-2.344-5.656q0-2.937 2.093-5.281t5.031-2.656q1.312-2.437 3.688-3.937t5.188-1.5q3.375 0 6.281 2.375t3.531 5.688z"></path>
</symbol>
<symbol id="icon-cloud5" viewBox="0 0 32 32">
<path d="M25.812 13.375q2.563 0.188 4.375 2.093t1.812 4.531q0 2.751-1.969 4.719t-4.719 1.969h-17.312q-3.312 0-5.656-2.344t-2.344-5.656q0-2.937 2.093-5.281t5.031-2.656q1.312-2.437 3.688-3.937t5.188-1.5q3.375 0 6.281 2.375t3.531 5.688z"></path>
</symbol>
<symbol id="icon-collectionsphoto_library" viewBox="0 0 32 32">
<path d="M2.688 8h2.625v18.688h18.688v2.625h-18.688q-1.063 0-1.844-0.781t-0.781-1.844v-18.688zM14.688 16l-4 5.312h16l-5.375-6.625-3.937 4.937zM29.312 21.312q0 1.063-0.781 1.875t-1.844 0.812h-16q-1.063 0-1.875-0.812t-0.812-1.875v-16q0-1.063 0.812-1.844t1.875-0.781h16q1.063 0 1.844 0.781t0.781 1.844v16z"></path>
</symbol>
<symbol id="icon-content_paste" viewBox="0 0 32 32">
<path d="M25.312 26.688v-21.375h-2.625v4h-13.375v-4h-2.625v21.375h18.625zM16 2.688q-0.563 0-0.937 0.375t-0.375 0.937 0.375 0.937 0.937 0.375 0.937-0.375 0.375-0.937-0.375-0.937-0.937-0.375zM25.312 2.688q1.063 0 1.875 0.781t0.812 1.844v21.375q0 1.063-0.812 1.844t-1.875 0.781h-18.625q-1.063 0-1.875-0.781t-0.812-1.844v-21.375q0-1.063 0.812-1.844t1.875-0.781h5.563q0.437-1.188 1.437-1.937t2.312-0.751 2.312 0.751 1.437 1.937h5.563z"></path>
</symbol>
<symbol id="icon-create_new_folder" viewBox="0 0 32 32">
<path d="M25.312 18.688v-2.688h-4v-4h-2.625v4h-4v2.688h4v4h2.625v-4h4zM26.688 8q1.125 0 1.875 0.781t0.751 1.907v13.312q0 1.125-0.751 1.907t-1.875 0.781h-21.375q-1.125 0-1.875-0.781t-0.751-1.907v-16q0-1.125 0.751-1.907t1.875-0.781h8l2.688 2.688h10.688z"></path>
</symbol>
<symbol id="icon-createmode_editedit" viewBox="0 0 32 32">
<path d="M27.625 9.375l-2.437 2.437-5-5 2.437-2.437q0.375-0.375 0.937-0.375t0.937 0.375l3.125 3.125q0.375 0.375 0.375 0.937t-0.375 0.937zM4 23l14.751-14.751 5 5-14.751 14.751h-5v-5z"></path>
</symbol>
<symbol id="icon-dehaze" viewBox="0 0 32 32">
<path d="M2.688 7.312h26.625v2.688h-26.625v-2.688zM2.688 14h26.625v2.688h-26.625v-2.688zM2.688 20.688h26.625v2.625h-26.625v-2.625z"></path>
</symbol>
<symbol id="icon-delete" viewBox="0 0 32 32">
<path d="M25.312 5.312v2.688h-18.625v-2.688h4.625l1.375-1.312h6.625l1.375 1.312h4.625zM8 25.312v-16h16v16q0 1.063-0.812 1.875t-1.875 0.812h-10.625q-1.063 0-1.875-0.812t-0.812-1.875z"></path>
</symbol>
<symbol id="icon-description" viewBox="0 0 32 32">
<path d="M17.312 12h7.375l-7.375-7.312v7.312zM21.312 18.688v-2.688h-10.625v2.688h10.625zM21.312 24v-2.688h-10.625v2.688h10.625zM18.688 2.688l8 8v16q0 1.063-0.812 1.844t-1.875 0.781h-16q-1.063 0-1.875-0.781t-0.812-1.844l0.063-21.375q0-1.063 0.781-1.844t1.844-0.781h10.688z"></path>
</symbol>
<symbol id="icon-directions_walk" viewBox="0 0 32 32">
<path d="M13.063 11.875l-3.751 18.812h2.812l2.437-10.688 2.751 2.688v8h2.688v-10l-2.812-2.688 0.812-4q2.875 3.312 7.312 3.312v-2.625q-3.875 0-5.688-3.251l-1.375-2.125q-0.937-1.312-2.251-1.312-0.188 0-0.531 0.063t-0.531 0.063l-6.937 2.937v6.251h2.688v-4.5l2.375-0.937zM18 7.312q-1.063 0-1.875-0.781t-0.812-1.844 0.812-1.875 1.875-0.812 1.875 0.812 0.812 1.875-0.812 1.844-1.875 0.781z"></path>
</symbol>
<symbol id="icon-equalizer1" viewBox="0 0 32 32">
<path d="M21.312 12h5.375v14.688h-5.375v-14.688zM5.312 26.688v-10.688h5.375v10.688h-5.375zM13.312 26.688v-21.375h5.375v21.375h-5.375z"></path>
</symbol>
<symbol id="icon-error_outline" viewBox="0 0 32 32">
<path d="M16 26.688q4.375 0 7.531-3.156t3.156-7.531-3.156-7.531-7.531-3.156-7.531 3.156-3.156 7.531 3.156 7.531 7.531 3.156zM16 2.688q5.5 0 9.407 3.907t3.907 9.407-3.907 9.407-9.407 3.907-9.407-3.907-3.907-9.407 3.907-9.407 9.407-3.907zM14.688 9.312h2.625v8h-2.625v-8zM14.688 20h2.625v2.688h-2.625v-2.688z"></path>
</symbol>
<symbol id="icon-error1" viewBox="0 0 32 32">
<path d="M17.312 17.312v-8h-2.625v8h2.625zM17.312 22.688v-2.688h-2.625v2.688h2.625zM16 2.688q5.5 0 9.407 3.907t3.907 9.407-3.907 9.407-9.407 3.907-9.407-3.907-3.907-9.407 3.907-9.407 9.407-3.907z"></path>
</symbol>
<symbol id="icon-event_available" viewBox="0 0 32 32">
<path d="M25.312 25.312v-14.625h-18.625v14.625h18.625zM25.312 4q1.063 0 1.875 0.812t0.812 1.875v18.625q0 1.063-0.812 1.875t-1.875 0.812h-18.625q-1.125 0-1.907-0.781t-0.781-1.907v-18.625q0-1.063 0.781-1.875t1.907-0.812h1.312v-2.688h2.688v2.688h10.625v-2.688h2.688v2.688h1.312zM22.063 14.751l-7.937 7.937-4.251-4.251 1.437-1.437 2.812 2.812 6.5-6.5z"></path>
</symbol>
<symbol id="icon-event_busy" viewBox="0 0 32 32">
<path d="M25.312 25.312v-14.625h-18.625v14.625h18.625zM25.312 4q1.063 0 1.875 0.812t0.812 1.875v18.625q0 1.063-0.812 1.875t-1.875 0.812h-18.625q-1.125 0-1.907-0.781t-0.781-1.907v-18.625q0-1.063 0.781-1.875t1.907-0.812h1.312v-2.688h2.688v2.688h10.625v-2.688h2.688v2.688h1.312zM12.437 22.688l-1.437-1.437 3.251-3.251-3.251-3.251 1.437-1.437 3.251 3.251 3.251-3.251 1.375 1.437-3.251 3.251 3.251 3.251-1.375 1.437-3.251-3.251z"></path>
</symbol>
<symbol id="icon-event_note" viewBox="0 0 32 32">
<path d="M18.688 18.688v2.625h-9.375v-2.625h9.375zM25.312 25.312v-14.625h-18.625v14.625h18.625zM25.312 4q1.063 0 1.875 0.812t0.812 1.875v18.625q0 1.063-0.812 1.875t-1.875 0.812h-18.625q-1.125 0-1.907-0.781t-0.781-1.907v-18.625q0-1.063 0.781-1.875t1.907-0.812h1.312v-2.688h2.688v2.688h10.625v-2.688h2.688v2.688h1.312zM22.688 13.312v2.688h-13.375v-2.688h13.375z"></path>
</symbol>
<symbol id="icon-exclamation-outline" viewBox="0 0 32 32">
<path d="M4.688 27.312c-3.014-2.914-4.885-6.992-4.885-11.509 0-8.837 7.163-16 16-16 4.517 0 8.595 1.87 11.504 4.88l0.005 0.005c2.779 2.874 4.491 6.795 4.491 11.115 0 8.837-7.163 16-16 16-4.32 0-8.242-1.712-11.12-4.496l0.005 0.005zM25.056 25.056c2.318-2.318 3.75-5.52 3.75-9.056 0-7.074-5.734-12.806-12.806-12.806-3.536 0-6.738 1.434-9.056 3.75v0c-2.318 2.318-3.75 5.52-3.75 9.056 0 7.074 5.734 12.806 12.806 12.806 3.536 0 6.738-1.434 9.056-3.75v0zM14.4 8h3.2v9.6h-3.2v-9.6zM14.4 20.8h3.2v3.2h-3.2v-3.2z"></path>
</symbol>
<symbol id="icon-exclamation-solid" viewBox="0 0 32 32">
<path d="M4.688 27.312c-3.014-2.914-4.885-6.992-4.885-11.509 0-8.837 7.163-16 16-16 4.517 0 8.595 1.87 11.504 4.88l0.005 0.005c2.779 2.874 4.491 6.795 4.491 11.115 0 8.837-7.163 16-16 16-4.32 0-8.242-1.712-11.12-4.496l0.005 0.005zM14.4 8v9.6h3.2v-9.6h-3.2zM14.4 20.8v3.2h3.2v-3.2h-3.2z"></path>
</symbol>
<symbol id="icon-file_downloadget_app" viewBox="0 0 32 32">
<path d="M6.688 24h18.625v2.688h-18.625v-2.688zM25.312 12l-9.312 9.312-9.312-9.312h5.312v-8h8v8h5.312z"></path>
</symbol>
<symbol id="icon-file_upload" viewBox="0 0 32 32">
<path d="M6.688 24h18.625v2.688h-18.625v-2.688zM12 21.312v-8h-5.312l9.312-9.312 9.312 9.312h-5.312v8h-8z"></path>
</symbol>
<symbol id="icon-folder_open" viewBox="0 0 32 32">
<path d="M26.688 24v-13.312h-21.375v13.312h21.375zM26.688 8q1.063 0 1.844 0.812t0.781 1.875v13.312q0 1.063-0.781 1.875t-1.844 0.812h-21.375q-1.063 0-1.844-0.812t-0.781-1.875v-16q0-1.063 0.781-1.875t1.844-0.812h8l2.688 2.688h10.688z"></path>
</symbol>
<symbol id="icon-folder_shared" viewBox="0 0 32 32">
<path d="M25.312 22.688v-1.375q0-1.188-1.844-1.907t-3.469-0.719-3.469 0.719-1.844 1.907v1.375h10.625zM20 12q-1.063 0-1.875 0.812t-0.812 1.875 0.812 1.844 1.875 0.781 1.875-0.781 0.812-1.844-0.812-1.875-1.875-0.812zM26.688 8q1.063 0 1.844 0.812t0.781 1.875v13.312q0 1.063-0.781 1.875t-1.844 0.812h-21.375q-1.063 0-1.844-0.812t-0.781-1.875v-16q0-1.063 0.781-1.875t1.844-0.812h8l2.688 2.688h10.688z"></path>
</symbol>
<symbol id="icon-folder1" viewBox="0 0 32 32">
<path d="M13.312 5.312l2.688 2.688h10.688q1.063 0 1.844 0.812t0.781 1.875v13.312q0 1.063-0.781 1.875t-1.844 0.812h-21.375q-1.063 0-1.844-0.812t-0.781-1.875v-16q0-1.063 0.781-1.875t1.844-0.812h8z"></path>
</symbol>
<symbol id="icon-gesture" viewBox="0 0 32 32">
<path d="M18.5 24.751q0.875 0 1.751-1.156t1.125-3.531q-1.875 0.5-2.875 1.688t-1 2q0 0.437 0.312 0.719t0.688 0.281zM6.125 9.188l-2.312-2.251q0.625-0.751 1.125-1.251 1.688-1.688 3.625-1.688 1.188 0 2.281 0.937t1.093 2.875q0 1.875-1.751 4.375-1.751 2.437-2.437 4.688-0.375 1.063-0.219 1.812t0.656 0.751q0.563 0 1.5-1.125 1.375-1.375 3.063-3.625 3-3.751 6.563-3.751 2.625 0 3.907 1.719t1.469 3.844h3.312v3.312h-3.251q-0.375 4.312-2.312 6.251t-4 1.937q-1.751 0-3-1.219t-1.251-2.907q0-2.063 1.875-4.312t5.312-2.875q-0.063-0.5-0.093-0.688t-0.188-0.593-0.375-0.593-0.656-0.344-1.063-0.156q-1.751 0-5.437 4.563-1.063 1.312-1.469 1.781t-1.156 1.093-1.437 0.812q-2.188 0.688-3.751-0.812t-1.563-3.751q0-0.937 0.344-2.063t0.907-2.188 1.063-1.907 0.969-1.531 0.531-0.751q1.063-1.751 0.375-2-0.437-0.188-2.251 1.625z"></path>
</symbol>
<symbol id="icon-help-with-circle" viewBox="0 0 32 32">
<path d="M16 0.64c-8.483 0-15.36 6.877-15.36 15.36s6.877 15.36 15.36 15.36c8.482 0 15.36-6.877 15.36-15.362 0-8.482-6.878-15.358-15.36-15.358zM15.758 24.958h-0.082c-1.251-0.037-2.134-0.96-2.098-2.194 0.035-1.213 0.939-2.094 2.149-2.094l0.074 0.003c1.286 0.037 2.16 0.95 2.123 2.219-0.037 1.216-0.925 2.066-2.166 2.066zM21.024 14.509c-0.294 0.416-0.941 0.938-1.757 1.573l-0.899 0.619c-0.493 0.384-0.79 0.747-0.901 1.101-0.090 0.278-0.131 0.354-0.139 0.922v0.144h-3.432l0.010-0.291c0.043-1.19 0.072-1.894 0.566-2.475 0.776-0.909 2.488-2.013 2.56-2.059 0.246-0.184 0.453-0.394 0.606-0.619 0.36-0.498 0.518-0.888 0.518-1.269 0-0.534-0.157-1.029-0.469-1.466-0.301-0.426-0.872-0.637-1.698-0.637-0.819 0-1.381 0.259-1.715 0.794-0.346 0.546-0.52 1.12-0.52 1.707v0.147h-3.538l0.006-0.154c0.091-2.165 0.866-3.725 2.296-4.635 0.901-0.578 2.022-0.87 3.33-0.87 1.709 0 3.155 0.416 4.291 1.235 1.154 0.83 1.738 2.075 1.738 3.698-0.002 0.907-0.288 1.76-0.854 2.536z"></path>
</symbol>
<symbol id="icon-help1" viewBox="0 0 32 32">
<path d="M22.544 3.573c-1.824-1.315-4.115-1.973-6.874-1.973-2.098 0-3.869 0.462-5.307 1.389-2.283 1.45-3.496 3.912-3.643 7.384h5.291c0-1.013 0.296-1.984 0.885-2.925 0.59-0.938 1.592-1.406 3.005-1.406 1.437 0 2.427 0.381 2.966 1.141 0.542 0.763 0.813 1.606 0.813 2.531 0 0.806-0.403 1.544-0.891 2.213-0.267 0.39-0.619 0.75-1.058 1.078 0 0-2.869 1.84-4.128 3.318-0.73 0.856-0.795 2.141-0.861 3.981-0.003 0.131 0.046 0.403 0.504 0.403s3.706 0 4.114 0c0.41 0 0.494-0.302 0.499-0.438 0.029-0.669 0.102-1.013 0.226-1.4 0.23-0.731 0.861-1.368 1.566-1.918l1.456-1.003c1.315-1.026 2.363-1.866 2.827-2.525 0.79-1.082 1.347-2.416 1.347-4-0.002-2.584-0.914-4.531-2.738-5.85zM15.586 23.878c-1.822-0.056-3.326 1.206-3.384 3.184-0.056 1.974 1.373 3.282 3.197 3.334 1.902 0.056 3.366-1.163 3.426-3.141 0.054-1.978-1.334-3.322-3.238-3.378z"></path>
</symbol>
<symbol id="icon-historyrestore" viewBox="0 0 32 32">
<path d="M16 10.688h2v5.625l4.688 2.812-1 1.625-5.688-3.437v-6.625zM17.312 4q4.937 0 8.469 3.5t3.531 8.5-3.531 8.5-8.469 3.5q-2.063 0-4.531-1.031t-3.907-2.469l1.875-1.937q2.751 2.751 6.563 2.751 3.875 0 6.625-2.719t2.751-6.593-2.751-6.593-6.625-2.719-6.593 2.719-2.719 6.593h4l-5.375 5.375-0.125-0.188-5.188-5.188h4q0-5 3.531-8.5t8.469-3.5z"></path>
</symbol>
<symbol id="icon-images" viewBox="0 0 32 32">
<path d="M27.4 9.872l-3.274-9.016c-0.242-0.666-0.952-1.019-1.582-0.787l-21.757 7.941c-0.63 0.23-0.949 0.955-0.706 1.621l3.45 9.506v-5.093c0-2.301 1.837-4.171 4.096-4.171h5.749l6.856-4.813 3.966 4.813h3.202zM30.781 12.8h-23.154c-0.672 0-1.219 0.534-1.219 1.243v15.072c0.002 0.71 0.549 1.285 1.219 1.285h23.154c0.672 0 1.219-0.574 1.219-1.285v-15.072c0-0.709-0.547-1.243-1.219-1.243zM28.8 27.2h-19.2v-3.2l3.174-6.429 4.429 5.498 4.157-4.259 5.341-1.928 2.099 5.518v4.8z"></path>
</symbol>
<symbol id="icon-info_outline" viewBox="0 0 32 32">
<path d="M14.688 12v-2.688h2.625v2.688h-2.625zM16 26.688q4.375 0 7.531-3.156t3.156-7.531-3.156-7.531-7.531-3.156-7.531 3.156-3.156 7.531 3.156 7.531 7.531 3.156zM16 2.688q5.5 0 9.407 3.907t3.907 9.407-3.907 9.407-9.407 3.907-9.407-3.907-3.907-9.407 3.907-9.407 9.407-3.907zM14.688 22.688v-8h2.625v8h-2.625z"></path>
</symbol>
<symbol id="icon-info-with-circle" viewBox="0 0 32 32">
<path d="M16 0.64c-8.485 0-15.362 6.877-15.362 15.36 0 8.485 6.877 15.362 15.362 15.362 8.482 0 15.36-6.877 15.36-15.362s-6.878-15.36-15.36-15.36zM17.434 6.186c1.498 0 1.938 0.869 1.938 1.862 0 1.24-0.992 2.387-2.686 2.387-1.418 0-2.093-0.712-2.051-1.891 0-0.994 0.83-2.358 2.8-2.358zM13.597 25.2c-1.024 0-1.771-0.622-1.056-3.35l1.173-4.84c0.203-0.774 0.237-1.085 0-1.085-0.306 0-1.635 0.534-2.419 1.062l-0.51-0.837c2.488-2.078 5.349-3.298 6.573-3.298 1.024 0 1.194 1.21 0.683 3.072l-1.344 5.088c-0.238 0.899-0.136 1.21 0.102 1.21 0.307 0 1.312-0.371 2.301-1.15l0.579 0.778c-2.421 2.419-5.059 3.35-6.082 3.35z"></path>
</symbol>
<symbol id="icon-info2" viewBox="0 0 32 32">
<path d="M17.312 12v-2.688h-2.625v2.688h2.625zM17.312 22.688v-8h-2.625v8h2.625zM16 2.688q5.5 0 9.407 3.907t3.907 9.407-3.907 9.407-9.407 3.907-9.407-3.907-3.907-9.407 3.907-9.407 9.407-3.907z"></path>
</symbol>
<symbol id="icon-info11" viewBox="0 0 32 32">
<path d="M19.891 0c2.144 0 3.216 1.459 3.216 3.131 0 2.088-1.862 4.019-4.286 4.019-2.030 0-3.214-1.2-3.158-3.184 0-1.669 1.41-3.966 4.229-3.966zM13.294 32c-1.693 0-2.933-1.043-1.749-5.638l1.942-8.147c0.338-1.302 0.394-1.826 0-1.826-0.507 0-2.702 0.899-4.003 1.787l-0.845-1.408c4.115-3.498 8.85-5.547 10.882-5.547 1.691 0 1.973 2.037 1.128 5.168l-2.226 8.563c-0.394 1.512-0.226 2.034 0.17 2.034 0.507 0 2.171-0.627 3.806-1.931l0.96 1.302c-4.003 4.075-8.376 5.643-10.066 5.643z"></path>
</symbol>
<symbol id="icon-information-outline" viewBox="0 0 32 32">
<path d="M4.688 27.312c-3.014-2.914-4.885-6.992-4.885-11.509 0-8.837 7.163-16 16-16 4.517 0 8.595 1.87 11.504 4.88l0.005 0.005c2.779 2.874 4.491 6.795 4.491 11.115 0 8.837-7.163 16-16 16-4.32 0-8.242-1.712-11.12-4.496l0.005 0.005zM25.056 25.056c2.318-2.318 3.75-5.52 3.75-9.056 0-7.074-5.734-12.806-12.806-12.806-3.536 0-6.738 1.434-9.056 3.75v0c-2.318 2.318-3.75 5.52-3.75 9.056 0 7.074 5.734 12.806 12.806 12.806 3.536 0 6.738-1.434 9.056-3.75v0zM14.4 17.6v-3.2h3.2v9.6h-3.2v-6.4zM14.4 8h3.2v3.2h-3.2v-3.2z"></path>
</symbol>
<symbol id="icon-information-solid" viewBox="0 0 32 32">
<path d="M4.688 27.312c-3.014-2.914-4.885-6.992-4.885-11.509 0-8.837 7.163-16 16-16 4.517 0 8.595 1.87 11.504 4.88l0.005 0.005c2.779 2.874 4.491 6.795 4.491 11.115 0 8.837-7.163 16-16 16-4.32 0-8.242-1.712-11.12-4.496l0.005 0.005zM14.4 17.6v6.4h3.2v-9.6h-3.2v3.2zM14.4 8v3.2h3.2v-3.2h-3.2z"></path>
</symbol>
<symbol id="icon-insert_chart_outlined" viewBox="0 0 32 32">
<path d="M26 4q1.063 0 1.875 0.812t0.812 1.875v18.625q0 1.063-0.812 1.875t-1.875 0.812h-20q-1.063 0-1.875-0.812t-0.812-1.875v-18.625q0-1.063 0.812-1.875t1.875-0.812h20zM26 25.437v-18.751h-20v18.751h20zM22.688 22.688h-2.688v-5.375h2.688v5.375zM17.312 22.688h-2.625v-13.375h2.625v13.375zM12 22.688h-2.688v-9.375h2.688v9.375z"></path>
</symbol>
<symbol id="icon-insert_chartpollassessment" viewBox="0 0 32 32">
<path d="M22.688 22.688v-5.375h-2.688v5.375h2.688zM17.312 22.688v-13.375h-2.625v13.375h2.625zM12 22.688v-9.375h-2.688v9.375h2.688zM25.312 4q1.063 0 1.875 0.812t0.812 1.875v18.625q0 1.063-0.812 1.875t-1.875 0.812h-18.625q-1.063 0-1.875-0.812t-0.812-1.875v-18.625q0-1.063 0.812-1.875t1.875-0.812h18.625z"></path>
</symbol>
<symbol id="icon-insert_drive_file" viewBox="0 0 32 32">
<path d="M17.312 12h7.375l-7.375-7.312v7.312zM8 2.688h10.688l8 8v16q0 1.063-0.812 1.844t-1.875 0.781h-16q-1.063 0-1.875-0.781t-0.812-1.844l0.063-21.375q0-1.063 0.781-1.844t1.844-0.781z"></path>
</symbol>
<symbol id="icon-insert_invitationevent" viewBox="0 0 32 32">
<path d="M25.312 25.312v-14.625h-18.625v14.625h18.625zM21.312 1.312h2.688v2.688h1.312q1.063 0 1.875 0.812t0.812 1.875v18.625q0 1.063-0.812 1.875t-1.875 0.812h-18.625q-1.125 0-1.907-0.781t-0.781-1.907v-18.625q0-1.063 0.781-1.875t1.907-0.812h1.312v-2.688h2.688v2.688h10.625v-2.688zM22.688 16v6.688h-6.688v-6.688h6.688z"></path>
</symbol>
<symbol id="icon-keyboard_arrow_down" viewBox="0 0 32 32">
<path d="M9.875 11.437l6.125 6.125 6.125-6.125 1.875 1.875-8 8-8-8z"></path>
</symbol>
<symbol id="icon-keyboard_arrow_up" viewBox="0 0 32 32">
<path d="M9.875 20.563l-1.875-1.875 8-8 8 8-1.875 1.875-6.125-6.125z"></path>
</symbol>
<symbol id="icon-light-bulb" viewBox="0 0 32 32">
<path d="M11.2 21.328c-3.814-1.84-6.4-5.678-6.4-10.12 0-6.186 5.014-11.2 11.2-11.2s11.2 5.014 11.2 11.2c0 4.442-2.586 8.278-6.333 10.090l-0.067 0.029v4.272h-9.6v-4.272zM11.2 27.2h9.6v2.4c0 1.328-1.072 2.4-2.4 2.4h-4.8c-1.325 0-2.4-1.075-2.4-2.4v0-2.4zM14.4 19.040v3.36h3.2v-3.36c3.678-0.77 6.4-3.987 6.4-7.838 0-4.418-3.582-8-8-8s-8 3.582-8 8c0 3.851 2.722 7.067 6.347 7.829l0.053 0.010z"></path>
</symbol>
<symbol id="icon-live_help" viewBox="0 0 32 32">
<path d="M20.063 13.688q1.251-1.251 1.251-3 0-2.188-1.563-3.781t-3.751-1.593-3.751 1.593-1.563 3.781h2.625q0-1.063 0.812-1.875t1.875-0.812 1.875 0.812 0.812 1.875-0.812 1.875l-1.625 1.688q-1.563 1.688-1.563 3.751v0.688h2.625q0-2.125 1.563-3.812zM17.312 24v-2.688h-2.625v2.688h2.625zM25.312 2.688q1.063 0 1.875 0.781t0.812 1.844v18.688q0 1.063-0.812 1.875t-1.875 0.812h-5.312l-4 4-4-4h-5.312q-1.125 0-1.907-0.781t-0.781-1.907v-18.688q0-1.125 0.781-1.875t1.907-0.751h18.625z"></path>
</symbol>
<symbol id="icon-local_hospital" viewBox="0 0 32 32">
<path d="M24 18.688v-5.375h-5.312v-5.312h-5.375v5.312h-5.312v5.375h5.312v5.312h5.375v-5.312h5.312zM25.312 4q1.063 0 1.875 0.812t0.812 1.875v18.625q0 1.063-0.812 1.875t-1.875 0.812h-18.625q-1.063 0-1.875-0.812t-0.812-1.875v-18.625q0-1.063 0.812-1.875t1.875-0.812h18.625z"></path>
</symbol>
<symbol id="icon-local_print_shopprint" viewBox="0 0 32 32">
<path d="M24 4v5.312h-16v-5.312h16zM25.312 16q0.563 0 0.969-0.375t0.407-0.937-0.407-0.969-0.969-0.407-0.937 0.407-0.375 0.969 0.375 0.937 0.937 0.375zM21.312 25.312v-6.625h-10.625v6.625h10.625zM25.312 10.688q1.625 0 2.812 1.188t1.188 2.812v8h-5.312v5.312h-16v-5.312h-5.312v-8q0-1.625 1.188-2.812t2.812-1.188h18.625z"></path>
</symbol>
<symbol id="icon-local_restaurantrestaurant_menu" viewBox="0 0 32 32">
<path d="M19.812 15.375l-1.937 1.937 9.188 9.188-1.875 1.875-9.188-9.188-9.188 9.188-1.875-1.875 13-13q-0.751-1.5-0.219-3.5t2.093-3.563q1.937-1.937 4.312-2.219t3.812 1.156 1.156 3.844-2.219 4.344q-1.563 1.563-3.563 2.063t-3.5-0.251zM10.812 17.812l-5.625-5.625q-1.563-1.563-1.563-3.751t1.563-3.751l9.375 9.312z"></path>
</symbol>
<symbol id="icon-location_city" viewBox="0 0 32 32">
<path d="M25.312 20v-2.688h-2.625v2.688h2.625zM25.312 25.312v-2.625h-2.625v2.625h2.625zM17.312 9.312v-2.625h-2.625v2.625h2.625zM17.312 14.688v-2.688h-2.625v2.688h2.625zM17.312 20v-2.688h-2.625v2.688h2.625zM17.312 25.312v-2.625h-2.625v2.625h2.625zM9.312 14.688v-2.688h-2.625v2.688h2.625zM9.312 20v-2.688h-2.625v2.688h2.625zM9.312 25.312v-2.625h-2.625v2.625h2.625zM20 14.688h8v13.312h-24v-18.688h8v-2.625l4-4 4 4v8z"></path>
</symbol>
<symbol id="icon-menu11" viewBox="0 0 32 32">
<path d="M4 8h24v2.688h-24v-2.688zM4 17.312v-2.625h24v2.625h-24zM4 24v-2.688h24v2.688h-24z"></path>
</symbol>
<symbol id="icon-move_to_inbox" viewBox="0 0 32 32">
<path d="M21.312 13.312l-5.312 5.375-5.312-5.375h2.625v-4h5.375v4h2.625zM25.312 20v-13.312h-18.688v13.312h5.375q0 1.625 1.188 2.812t2.812 1.188 2.812-1.188 1.188-2.812h5.312zM25.312 4q1.063 0 1.875 0.812t0.812 1.875v18.625q0 1.063-0.812 1.875t-1.875 0.812h-18.688q-1.125 0-1.875-0.781t-0.751-1.907v-18.625q0-1.125 0.751-1.907t1.875-0.781h18.688z"></path>
</symbol>
<symbol id="icon-new_releases" viewBox="0 0 32 32">
<path d="M17.312 17.312v-8h-2.625v8h2.625zM17.312 22.688v-2.688h-2.625v2.688h2.625zM30.688 16l-3.251 3.688 0.437 4.937-4.812 1.063-2.5 4.251-4.563-1.937-4.563 1.937-2.5-4.188-4.812-1.125 0.437-4.937-3.251-3.688 3.251-3.751-0.437-4.875 4.812-1.063 2.5-4.251 4.563 1.937 4.563-1.937 2.5 4.251 4.812 1.063-0.437 4.937z"></path>
</symbol>
<symbol id="icon-news" viewBox="0 0 32 32">
<path d="M22.4 8h-6.4v3.2h6.4v-3.2zM22.4 12.8h-6.4v1.6h6.4v-1.6zM14.4 8h-4.8v6.4h4.8v-6.4zM14.4 17.6h8v-1.6h-8v1.6zM19.2 20.8h3.2v-1.6h-3.2v1.6zM22.4 22.4h-12.8v1.6h12.8v-1.6zM17.6 19.2h-8v1.6h8v-1.6zM12.8 16h-3.2v1.6h3.2v-1.6zM27.2 1.6h-22.4c-0.885 0-1.6 0.715-1.6 1.6v25.6c0 0.883 0.715 1.6 1.6 1.6h22.4c0.885 0 1.6-0.717 1.6-1.6v-25.6c0-0.883-0.715-1.6-1.6-1.6zM25.6 27.2h-19.2v-22.4h19.2v22.4z"></path>
</symbol>
<symbol id="icon-not_interesteddo_not_disturb" viewBox="0 0 32 32">
<path d="M24.437 22.563q2.251-2.812 2.251-6.563 0-4.375-3.156-7.531t-7.531-3.156q-1.5 0-3.437 0.656t-3.125 1.593zM16 26.688q1.5 0 3.437-0.656t3.125-1.593l-15-15q-2.251 2.812-2.251 6.563 0 4.375 3.156 7.531t7.531 3.156zM16 2.688q5.5 0 9.407 3.907t3.907 9.407-3.907 9.407-9.407 3.907-9.407-3.907-3.907-9.407 3.907-9.407 9.407-3.907z"></path>
</symbol>
<symbol id="icon-not_listed_location" viewBox="0 0 32 32">
<path d="M17.188 17.188q0-1.251 1.751-2.812t1.751-3.063q0-1.937-1.375-3.281t-3.312-1.344-3.312 1.344-1.375 3.281h2.375q0-0.937 0.688-1.625t1.625-0.688 1.625 0.688 0.688 1.625q0 0.751-0.531 1.375t-1.219 1.031-1.219 1.281-0.531 2.188h2.375zM17.188 21v-2.312h-2.375v2.312h2.375zM16 2.688q3.875 0 6.593 2.719t2.719 6.593q0 1.937-0.969 4.437t-2.344 4.688-2.719 4.093-2.281 3.031l-1 1.063q-0.375-0.437-1-1.156t-2.251-2.875-2.844-4.188-2.219-4.593-1-4.5q0-3.875 2.719-6.593t6.593-2.719z"></path>
</symbol>
<symbol id="icon-notification_important" viewBox="0 0 32 32">
<path d="M16 29.312q-1.125 0-1.907-0.751t-0.781-1.875h5.375q0 1.063-0.812 1.844t-1.875 0.781zM17.312 16v-5.312h-2.625v5.312h2.625zM17.312 21.312v-2.625h-2.625v2.625h2.625zM24 21.312l2.688 2.688v1.312h-21.375v-1.312l2.688-2.688v-6.625q0-3.125 1.593-5.437t4.407-3v-0.937q0-0.812 0.563-1.407t1.437-0.593 1.437 0.593 0.563 1.407v0.937q2.812 0.688 4.407 3t1.593 5.437v6.625z"></path>
</symbol>
<symbol id="icon-notification" viewBox="0 0 32 32">
<path d="M6.4 12.8c0-0.002 0-0.003 0-0.005 0-4.173 2.662-7.723 6.381-9.046l0.067-0.021c-0.026-0.152-0.040-0.326-0.040-0.504 0-1.768 1.432-3.2 3.2-3.2s3.2 1.432 3.2 3.2c0 0.178-0.014 0.352-0.043 0.523l0.003-0.019c3.778 1.349 6.432 4.896 6.432 9.062 0 0.003 0 0.006 0 0.010v0 9.6l4.8 3.2v1.6h-28.8v-1.6l4.8-3.2v-9.6zM19.2 28.8c0 1.768-1.432 3.2-3.2 3.2s-3.2-1.432-3.2-3.2v0h6.4z"></path>
</symbol>
<symbol id="icon-notifications-outline" viewBox="0 0 32 32">
<path d="M9.6 12.8v11.2h12.8v-11.2c0-3.534-2.866-6.4-6.4-6.4s-6.4 2.866-6.4 6.4v0zM12.848 3.728c-0.026-0.152-0.040-0.326-0.040-0.504 0-1.768 1.432-3.2 3.2-3.2s3.2 1.432 3.2 3.2c0 0.178-0.014 0.352-0.043 0.523l0.003-0.019c3.778 1.349 6.432 4.896 6.432 9.062 0 0.003 0 0.006 0 0.010v0 9.6l4.8 3.2v1.6h-28.8v-1.6l4.8-3.2v-9.6c0-0.002 0-0.003 0-0.005 0-4.173 2.662-7.723 6.381-9.046l0.067-0.021zM19.2 28.8c0 1.768-1.432 3.2-3.2 3.2s-3.2-1.432-3.2-3.2v0h6.4z"></path>
</symbol>
<symbol id="icon-notifications1" viewBox="0 0 32 32">
<path d="M6.4 12.8c0-0.002 0-0.003 0-0.005 0-4.173 2.662-7.723 6.381-9.046l0.067-0.021c-0.026-0.152-0.040-0.326-0.040-0.504 0-1.768 1.432-3.2 3.2-3.2s3.2 1.432 3.2 3.2c0 0.178-0.014 0.352-0.043 0.523l0.003-0.019c3.778 1.349 6.432 4.896 6.432 9.062 0 0.003 0 0.006 0 0.010v0 9.6l4.8 3.2v1.6h-28.8v-1.6l4.8-3.2v-9.6zM19.2 28.8c0 1.768-1.432 3.2-3.2 3.2s-3.2-1.432-3.2-3.2v0h6.4z"></path>
</symbol>
<symbol id="icon-perm_contact_calendar" viewBox="0 0 32 32">
<path d="M24 24v-1.312q0-1.812-2.751-2.969t-5.251-1.156-5.251 1.156-2.751 2.969v1.312h16zM16 8q-1.625 0-2.812 1.188t-1.188 2.812 1.188 2.812 2.812 1.188 2.812-1.188 1.188-2.812-1.188-2.812-2.812-1.188zM25.312 4q1.063 0 1.875 0.812t0.812 1.875v18.625q0 1.063-0.812 1.875t-1.875 0.812h-18.625q-1.125 0-1.907-0.781t-0.781-1.907v-18.625q0-1.125 0.781-1.907t1.907-0.781h1.312v-2.688h2.688v2.688h10.625v-2.688h2.688v2.688h1.312z"></path>
</symbol>
<symbol id="icon-person_outlineperm_identity" viewBox="0 0 32 32">
<path d="M16 17.312q2 0 4.375 0.563t4.344 1.875 1.969 2.937v4h-21.375v-4q0-1.625 1.969-2.937t4.344-1.875 4.375-0.563zM16 5.312q2.188 0 3.751 1.593t1.563 3.781-1.563 3.751-3.751 1.563-3.751-1.563-1.563-3.751 1.563-3.781 3.751-1.593zM16 19.875q-2.751 0-5.437 1.031t-2.688 1.781v1.437h16.251v-1.437q0-0.751-2.688-1.781t-5.437-1.031zM16 7.875q-1.188 0-2 0.812t-0.812 2 0.812 1.969 2 0.781 2-0.781 0.812-1.969-0.812-2-2-0.812z"></path>
</symbol>
<symbol id="icon-person" viewBox="0 0 32 32">
<path d="M16 18.688q3.375 0 7.031 1.469t3.656 3.844v2.688h-21.375v-2.688q0-2.375 3.656-3.844t7.031-1.469zM16 16q-2.188 0-3.751-1.563t-1.563-3.751 1.563-3.781 3.751-1.593 3.751 1.593 1.563 3.781-1.563 3.751-3.751 1.563z"></path>
</symbol>
<symbol id="icon-photo_size_select_actual" viewBox="0 0 32 32">
<path d="M6.688 22.688h18.625l-6-8-4.625 6-3.375-4zM28 4q1 0 1.844 0.844t0.844 1.844v18.625q0 1-0.844 1.844t-1.844 0.844h-24q-1.063 0-1.875-0.812t-0.812-1.875v-18.625q0-1 0.844-1.844t1.844-0.844h24z"></path>
</symbol>
<symbol id="icon-photo1" viewBox="0 0 32 32">
<path d="M0 6.4c0-1.76 1.44-3.2 3.2-3.2h25.6c1.768 0 3.2 1.432 3.2 3.2v0 19.2c0 1.768-1.432 3.2-3.2 3.2v0h-25.6c-1.768 0-3.2-1.432-3.2-3.2v0-19.2zM17.6 20.8l-4.8-4.8-9.6 9.6h25.6l-8-8-3.2 3.2zM24 14.4c1.768 0 3.2-1.432 3.2-3.2s-1.432-3.2-3.2-3.2v0c-1.768 0-3.2 1.432-3.2 3.2s1.432 3.2 3.2 3.2v0z"></path>
</symbol>
<symbol id="icon-post_add" viewBox="0 0 32 32">
<path d="M9.312 20h10.688v2.688h-10.688v-2.688zM9.312 16h10.688v2.688h-10.688v-2.688zM9.312 12h10.688v2.688h-10.688v-2.688zM25.312 2.688v4h4v2.625h-4v4h-2.625v-4h-4v-2.625h4v-4h2.625zM22.688 25.625v-9.625h2.625v9.312q0 1.063-0.781 1.875t-1.844 0.812h-16q-1.063 0-1.875-0.812t-0.812-1.875v-16q0-1.063 0.812-1.844t1.875-0.781h9.312v2.625h-9.312v16.312h16z"></path>
</symbol>
<symbol id="icon-remove" viewBox="0 0 32 32">
<path d="M25.312 17.312h-18.625v-2.625h18.625v2.625z"></path>
</symbol>
<symbol id="icon-restaurant" viewBox="0 0 32 32">
<path d="M21.312 8q0-1.875 2.031-3.593t4.656-1.719v26.625h-3.312v-10.625h-3.375v-10.688zM14.688 12v-9.312h2.625v9.312q0 2.125-1.437 3.656t-3.563 1.656v12h-3.312v-12q-2.125-0.125-3.563-1.656t-1.437-3.656v-9.312h2.688v9.312h2.625v-9.312h2.688v9.312h2.688z"></path>
</symbol>
<symbol id="icon-save-disk" viewBox="0 0 32 32">
<path d="M0 3.2c0-1.76 1.44-3.2 3.2-3.2h22.4l6.4 6.4v22.4c0 1.768-1.432 3.2-3.2 3.2v0h-25.6c-1.768 0-3.2-1.432-3.2-3.2v0-25.6zM8 3.2v9.6h16v-9.6h-16zM17.6 4.8h4.8v6.4h-4.8v-6.4z"></path>
</symbol>
<symbol id="icon-save11" viewBox="0 0 32 32">
<path d="M24.277 3.2h-17.877c-1.762 0-3.2 1.44-3.2 3.2v19.2c0 1.76 1.438 3.2 3.2 3.2h19.2c1.762 0 3.2-1.44 3.2-3.2v-17.397l-4.523-5.003zM22.4 12.8c0 0.878-0.72 1.6-1.6 1.6h-9.6c-0.88 0-1.6-0.722-1.6-1.6v-8h12.8v8zM20.8 6.4h-3.2v6.4h3.2v-6.4z"></path>
</symbol>
<symbol id="icon-search2" viewBox="0 0 32 32">
<path d="M12.688 18.688q2.5 0 4.251-1.751t1.751-4.251-1.751-4.251-4.251-1.751-4.251 1.751-1.751 4.251 1.751 4.251 4.251 1.751zM20.688 18.688l6.625 6.625-2 2-6.625-6.625v-1.063l-0.375-0.375q-2.375 2.063-5.625 2.063-3.625 0-6.156-2.5t-2.531-6.125 2.531-6.156 6.156-2.531 6.125 2.531 2.5 6.156q0 1.312-0.625 2.969t-1.437 2.656l0.375 0.375h1.063z"></path>
</symbol>
<symbol id="icon-settings1" viewBox="0 0 32 32">
<path d="M16 20.688q1.937 0 3.312-1.375t1.375-3.312-1.375-3.312-3.312-1.375-3.312 1.375-1.375 3.312 1.375 3.312 3.312 1.375zM25.937 17.312l2.812 2.188q0.437 0.312 0.125 0.875l-2.688 4.625q-0.251 0.437-0.812 0.251l-3.312-1.312q-1.312 0.937-2.251 1.312l-0.5 3.5q-0.125 0.563-0.625 0.563h-5.375q-0.5 0-0.625-0.563l-0.5-3.5q-1.188-0.5-2.251-1.312l-3.312 1.312q-0.563 0.188-0.812-0.251l-2.688-4.625q-0.312-0.563 0.125-0.875l2.812-2.188q-0.063-0.437-0.063-1.312t0.063-1.312l-2.812-2.188q-0.437-0.312-0.125-0.875l2.688-4.625q0.251-0.437 0.812-0.251l3.312 1.312q1.312-0.937 2.251-1.312l0.5-3.5q0.125-0.563 0.625-0.563h5.375q0.5 0 0.625 0.563l0.5 3.5q1.188 0.5 2.251 1.312l3.312-1.312q0.563-0.188 0.812 0.251l2.688 4.625q0.312 0.563-0.125 0.875l-2.812 2.188q0.063 0.437 0.063 1.312t-0.063 1.312z"></path>
</symbol>
<symbol id="icon-sim_card" viewBox="0 0 32 32">
<path d="M22.688 20v-5.312h-2.688v5.312h2.688zM17.312 17.312v-2.625h-2.625v2.625h2.625zM17.312 25.312v-5.312h-2.625v5.312h2.625zM12 20v-5.312h-2.688v5.312h2.688zM22.688 25.312v-2.625h-2.688v2.625h2.688zM12 25.312v-2.625h-2.688v2.625h2.688zM26.625 5.312l0.063 21.375q0 1.063-0.812 1.844t-1.875 0.781h-16q-1.063 0-1.875-0.781t-0.812-1.844v-16l8-8h10.688q1.063 0 1.844 0.781t0.781 1.844z"></path>
</symbol>
<symbol id="icon-stopwatch" viewBox="0 0 32 32">
<path d="M11.802 10.792c-0.715 0.44 1.915 6.787 2.557 7.821 0.56 0.91 1.749 1.187 2.653 0.63 0.909-0.563 1.192-1.75 0.632-2.656-0.635-1.037-5.128-6.237-5.842-5.795zM11.266 3.843c1.485-0.517 3.075-0.803 4.734-0.803s3.25 0.286 4.734 0.803c0.526 0.182 1.224-0.184 0.915-0.978-0.226-0.576-0.443-1.139-0.531-1.368-0.21-0.542-0.96-0.99-1.286-1.064-1.235-0.278-2.515-0.434-3.832-0.434s-2.597 0.155-3.834 0.434c-0.326 0.074-1.075 0.522-1.285 1.064-0.088 0.229-0.307 0.792-0.531 1.368-0.309 0.794 0.389 1.162 0.915 0.978zM30.557 5.098c-0.307-0.368-0.634-0.728-0.981-1.075-0.346-0.347-0.706-0.672-1.072-0.981-0.245-0.206-0.965-0.374-1.421 0.082s-2.637 2.635-2.637 2.635c0.643 0.461 1.269 0.968 1.848 1.546s1.083 1.203 1.546 1.848c0 0 2.181-2.179 2.635-2.635 0.458-0.458 0.29-1.176 0.082-1.419zM16 4.64c-7.16 0-12.962 5.802-12.962 12.96s5.802 12.962 12.962 12.962c7.157 0 12.96-5.802 12.96-12.962 0-7.157-5.803-12.96-12.96-12.96zM16 27.362c-5.389 0-9.76-4.37-9.76-9.76s4.37-9.76 9.76-9.76c5.39 0 9.762 4.37 9.762 9.76s-4.371 9.76-9.762 9.76z"></path>
</symbol>
<symbol id="icon-switch_account" viewBox="0 0 32 32">
<path d="M26.688 21.312v-2q0-1.751-2.751-2.875t-5.251-1.125-5.251 1.125-2.751 2.875v2h16zM18.688 5.312q-1.625 0-2.812 1.188t-1.188 2.812 1.188 2.812 2.812 1.188 2.812-1.188 1.188-2.812-1.188-2.812-2.812-1.188zM26.688 2.688q1.063 0 1.844 0.781t0.781 1.844v16q0 1.063-0.781 1.875t-1.844 0.812h-16q-1.063 0-1.875-0.812t-0.812-1.875v-16q0-1.063 0.812-1.844t1.875-0.781h16zM5.312 8v18.688h18.688v2.625h-18.688q-1.063 0-1.844-0.781t-0.781-1.844v-18.688h2.625z"></path>
</symbol>
<symbol id="icon-tag4" viewBox="0 0 32 32">
<path d="M18.688 18.688v-5.375h-5.375v5.375h5.375zM26.688 13.312h-5.375v5.375h5.375v2.625h-5.375v5.375h-2.625v-5.375h-5.375v5.375h-2.625v-5.375h-5.375v-2.625h5.375v-5.375h-5.375v-2.625h5.375v-5.375h2.625v5.375h5.375v-5.375h2.625v5.375h5.375v2.625z"></path>
</symbol>
<symbol id="icon-time2" viewBox="0 0 32 32">
<path d="M16 32c-8.837 0-16-7.163-16-16s7.163-16 16-16v0c8.837 0 16 7.163 16 16s-7.163 16-16 16v0zM16 28.8c7.069 0 12.8-5.731 12.8-12.8s-5.731-12.8-12.8-12.8v0c-7.069 0-12.8 5.731-12.8 12.8s5.731 12.8 12.8 12.8v0zM14.4 16.656v-10.256h3.2v8.944l6.32 6.32-2.256 2.256-7.264-7.264z"></path>
</symbol>
<symbol id="icon-timer1" viewBox="0 0 32 32">
<path d="M26.112 11.36c1.67 2.142 2.68 4.872 2.68 7.837 0 7.069-5.731 12.8-12.8 12.8s-12.8-5.731-12.8-12.8c0-6.509 4.858-11.882 11.144-12.694l0.064-0.006v-3.296h3.2v3.296c2.336 0.288 4.48 1.216 6.24 2.592l2.336-2.336 2.272 2.272-2.336 2.32zM16 28.8c5.302 0 9.6-4.298 9.6-9.6s-4.298-9.6-9.6-9.6v0c-5.302 0-9.6 4.298-9.6 9.6s4.298 9.6 9.6 9.6v0zM11.2 0h9.6v3.2h-9.6v-3.2zM19.392 13.536l2.272 2.272-5.664 5.632-2.256-2.24 5.648-5.664z"></path>
</symbol>
<symbol id="icon-today" viewBox="0 0 32 32">
<path d="M9.312 13.312h6.688v6.688h-6.688v-6.688zM25.312 25.312v-14.625h-18.625v14.625h18.625zM25.312 4q1.063 0 1.875 0.812t0.812 1.875v18.625q0 1.063-0.812 1.875t-1.875 0.812h-18.625q-1.125 0-1.907-0.781t-0.781-1.907v-18.625q0-1.063 0.781-1.875t1.907-0.812h1.312v-2.688h2.688v2.688h10.625v-2.688h2.688v2.688h1.312z"></path>
</symbol>
<symbol id="icon-tune" viewBox="0 0 32 32">
<path d="M20 12v-8h2.688v2.688h5.312v2.625h-5.312v2.688h-2.688zM28 17.312h-13.312v-2.625h13.312v2.625zM9.312 12h2.688v8h-2.688v-2.688h-5.312v-2.625h5.312v-2.688zM17.312 28h-2.625v-8h2.625v2.688h10.688v2.625h-10.688v2.688zM4 6.688h13.312v2.625h-13.312v-2.625zM4 22.688h8v2.625h-8v-2.625z"></path>
</symbol>
<symbol id="icon-tuning" viewBox="0 0 32 32">
<path d="M27.2 25.6v6.4h-3.2v-6.4h-3.2v-4.8h9.6v4.8h-3.2zM1.6 14.4h9.6v4.8h-9.6v-4.8zM11.2 8h9.6v4.8h-9.6v-4.8zM4.8 0h3.2v12.8h-3.2v-12.8zM24 0h3.2v19.2h-3.2v-19.2zM14.4 0h3.2v6.4h-3.2v-6.4zM4.8 19.2h3.2v12.8h-3.2v-12.8zM14.4 12.8h3.2v19.2h-3.2v-19.2z"></path>
</symbol>
<symbol id="icon-update" viewBox="0 0 32 32">
<path d="M16.688 10.688v5.625l4.625 2.812-0.937 1.625-5.688-3.437v-6.625h2zM28 13.5h-9.063l3.688-3.751q-2.751-2.751-6.593-2.781t-6.593 2.656q-1.125 1.125-1.937 3.031t-0.812 3.469 0.812 3.469 1.937 3.031 3.063 1.937 3.5 0.812 3.531-0.812 3.093-1.937q2.688-2.688 2.688-6.5h2.688q0 4.937-3.5 8.375-3.5 3.5-8.5 3.5t-8.5-3.5q-3.5-3.437-3.5-8.344t3.5-8.407q1.437-1.437 3.907-2.469t4.531-1.031 4.531 1.031 3.907 2.469l3.625-3.751v9.5z"></path>
</symbol>
<symbol id="icon-view-hide" viewBox="0 0 32 32">
<path d="M20.496 6.976l-2.832 2.848c-0.498-0.139-1.069-0.219-1.659-0.219-3.534 0-6.4 2.866-6.4 6.4 0 0.59 0.080 1.162 0.229 1.704l-0.011-0.045-4.416 4.4c-2.112-1.6-3.872-3.68-5.088-6.064 2.976-5.746 8.877-9.605 15.678-9.605 1.594 0 3.136 0.211 4.605 0.608l-0.123-0.029zM26.576 9.936c2.128 1.6 3.888 3.68 5.12 6.064-2.974 5.75-8.878 9.611-15.683 9.611-1.603 0-3.157-0.214-4.632-0.616l0.123 0.029 2.832-2.848c0.498 0.139 1.069 0.219 1.659 0.219 3.534 0 6.4-2.866 6.4-6.4 0-0.59-0.080-1.162-0.229-1.704l0.011 0.045 4.416-4.4zM26.176 3.552l2.272 2.272-22.624 22.624-2.272-2.272 22.624-22.624z"></path>
</symbol>
<symbol id="icon-view-show" viewBox="0 0 32 32">
<path d="M0.32 16c2.976-5.747 8.877-9.606 15.68-9.606s12.704 3.859 15.634 9.509l0.046 0.098c-2.976 5.747-8.877 9.606-15.68 9.606s-12.704-3.859-15.634-9.509l-0.046-0.098zM16 22.4c3.534 0 6.4-2.866 6.4-6.4s-2.866-6.4-6.4-6.4v0c-3.534 0-6.4 2.866-6.4 6.4s2.866 6.4 6.4 6.4v0zM16 19.2c-1.768 0-3.2-1.432-3.2-3.2s1.432-3.2 3.2-3.2v0c1.768 0 3.2 1.432 3.2 3.2s-1.432 3.2-3.2 3.2v0z"></path>
</symbol>
<symbol id="icon-warningreport_problem" viewBox="0 0 32 32">
<path d="M17.312 18.688v-5.375h-2.625v5.375h2.625zM17.312 24v-2.688h-2.625v2.688h2.625zM1.312 28l14.688-25.312 14.688 25.312h-29.375z"></path>
</symbol>
<symbol id="icon-watch_later" viewBox="0 0 32 32">
<path d="M21.625 21.625l1.063-1.751-6-3.625v-6.937h-2v8zM16 2.688q5.5 0 9.407 3.907t3.907 9.407-3.907 9.407-9.407 3.907-9.407-3.907-3.907-9.407 3.907-9.407 9.407-3.907z"></path>
</symbol>
<symbol id="icon-badge" viewBox="0 0 20 20">
<path d="M10 12c-3.314 0-6-2.686-6-6s2.686-6 6-6v0c3.314 0 6 2.686 6 6s-2.686 6-6 6v0zM10 9c1.657 0 3-1.343 3-3s-1.343-3-3-3v0c-1.657 0-3 1.343-3 3s1.343 3 3 3v0zM14 11.75v8.25l-4-4-4 4v-8.25c1.115 0.79 2.502 1.262 4 1.262s2.885-0.473 4.022-1.277l-0.022 0.015z"></path>
</symbol>
<symbol id="icon-flag" viewBox="0 0 20 20">
<path d="M7.667 12h-5.667v8h-2v-20h12l0.333 2h7.667l-3 6 3 6h-12l-0.333-2z"></path>
</symbol>
<symbol id="icon-tag" viewBox="0 0 20 20">
<path d="M0 10v-8l2-2h8l10 10-10 10-10-10zM4.5 6c0.828 0 1.5-0.672 1.5-1.5s-0.672-1.5-1.5-1.5v0c-0.828 0-1.5 0.672-1.5 1.5s0.672 1.5 1.5 1.5v0z"></path>
</symbol>
<symbol id="icon-save1" viewBox="0 0 20 20">
<path d="M15.173 2h-11.173c-1.101 0-2 0.9-2 2v12c0 1.1 0.899 2 2 2h12c1.101 0 2-0.9 2-2v-10.873l-2.827-3.127zM14 8c0 0.549-0.45 1-1 1h-6c-0.55 0-1-0.451-1-1v-5h8v5zM13 4h-2v4h2v-4z"></path>
</symbol>
<symbol id="icon-bell" viewBox="0 0 20 20">
<path d="M14.65 8.512c-2.28-4.907-3.466-6.771-7.191-6.693-1.327 0.027-1.009-0.962-2.021-0.587-1.010 0.375-0.143 0.924-1.177 1.773-2.902 2.383-2.635 4.587-1.289 9.84 0.567 2.213-1.367 2.321-0.602 4.465 0.559 1.564 4.679 2.219 9.025 0.607s7.086-4.814 6.527-6.378c-0.765-2.145-2.311-0.961-3.272-3.027zM10.924 16.595c-3.882 1.44-7.072 0.594-7.207 0.217-0.232-0.65 1.253-2.816 5.691-4.463s6.915-1.036 7.174-0.311c0.153 0.429-1.775 3.116-5.658 4.557zM9.676 13.101c-2.029 0.753-3.439 1.614-4.353 2.389 0.643 0.584 1.847 0.726 3.046 0.281 1.527-0.565 2.466-1.866 2.095-2.904-0.005-0.013-0.011-0.023-0.016-0.036-0.251 0.082-0.508 0.171-0.772 0.27z"></path>
</symbol>
<symbol id="icon-box" viewBox="0 0 20 20">
<path d="M18.399 2h-16.799c-0.332 0-0.6 0.267-0.6 0.6v2.4h18v-2.4c0-0.333-0.27-0.6-0.601-0.6zM2 16.6c0 0.77 0.629 1.4 1.399 1.4h13.2c0.77 0 1.4-0.631 1.4-1.4v-10.6h-15.999v10.6zM7 8h6v2h-6v-2z"></path>
</symbol>
<symbol id="icon-help-with-circle1" viewBox="0 0 20 20">
<path d="M10 0.4c-5.302 0-9.6 4.298-9.6 9.6s4.298 9.6 9.6 9.6c5.301 0 9.6-4.298 9.6-9.601 0-5.301-4.299-9.599-9.6-9.599zM9.849 15.599h-0.051c-0.782-0.023-1.334-0.6-1.311-1.371 0.022-0.758 0.587-1.309 1.343-1.309l0.046 0.002c0.804 0.023 1.35 0.594 1.327 1.387-0.023 0.76-0.578 1.291-1.354 1.291zM13.14 9.068c-0.184 0.26-0.588 0.586-1.098 0.983l-0.562 0.387c-0.308 0.24-0.494 0.467-0.563 0.688-0.056 0.174-0.082 0.221-0.087 0.576v0.090h-2.145l0.006-0.182c0.027-0.744 0.045-1.184 0.354-1.547 0.485-0.568 1.555-1.258 1.6-1.287 0.154-0.115 0.283-0.246 0.379-0.387 0.225-0.311 0.324-0.555 0.324-0.793 0-0.334-0.098-0.643-0.293-0.916-0.188-0.266-0.545-0.398-1.061-0.398-0.512 0-0.863 0.162-1.072 0.496-0.216 0.341-0.325 0.7-0.325 1.067v0.092h-2.211l0.004-0.096c0.057-1.353 0.541-2.328 1.435-2.897 0.563-0.361 1.264-0.544 2.081-0.544 1.068 0 1.972 0.26 2.682 0.772 0.721 0.519 1.086 1.297 1.086 2.311-0.001 0.567-0.18 1.1-0.534 1.585z"></path>
</symbol>
<symbol id="icon-home1" viewBox="0 0 20 20">
<path d="M18.672 11h-1.672v6c0 0.445-0.194 1-1 1h-4v-6h-4v6h-4c-0.806 0-1-0.555-1-1v-6h-1.672c-0.598 0-0.47-0.324-0.060-0.748l8.024-8.032c0.195-0.202 0.451-0.302 0.708-0.312 0.257 0.010 0.513 0.109 0.708 0.312l8.023 8.031c0.411 0.425 0.539 0.749-0.059 0.749z"></path>
</symbol>
<symbol id="icon-price-tag" viewBox="0 0 20 20">
<path d="M19.388 0.405c-0.111-0.314-0.454-0.48-0.769-0.371s-0.481 0.455-0.372 0.77c0.929 2.67-0.915 4.664-2.321 5.732l-0.568-0.814c-0.191-0.273-0.618-0.5-0.95-0.504l-3.188 0.014c-0.332-0.006-0.825 0.146-1.097 0.338l-9.394 6.587c-0.455 0.32-0.565 0.947-0.247 1.404l4.269 6.108c0.32 0.455 0.831 0.4 1.287 0.082l9.394-6.588c0.27-0.191 0.582-0.603 0.692-0.918l0.998-3.145c0.11-0.314 0.043-0.793-0.148-1.066l-0.346-0.496c1.888-1.447 3.848-4.004 2.76-7.133zM15.017 9.763c-0.727 0.51-1.731 0.332-2.24-0.396-0.511-0.73-0.333-1.734 0.395-2.246 0.578-0.405 1.328-0.376 1.868 0.017-0.272 0.164-0.459 0.26-0.494 0.275-0.301 0.143-0.43 0.504-0.288 0.805 0.104 0.219 0.321 0.348 0.547 0.348 0.086 0 0.174-0.020 0.257-0.059 0.194-0.092 0.402-0.201 0.619-0.33 0.097 0.594-0.139 1.217-0.664 1.586z"></path>
</symbol>
<symbol id="icon-print" viewBox="0 0 20 20">
<path d="M1.501 6h17c0.57 0 0.477-0.608 0.193-0.707-0.285-0.099-3.443-1.293-3.994-1.293h-0.7v-3h-8v3h-0.699c-0.55 0-3.709 1.194-3.993 1.293s-0.377 0.707 0.193 0.707zM19 7h-18c-0.55 0-1 0.45-1 1v5c0 0.551 0.45 1 1 1h2.283l-0.882 5h15.199l-0.883-5h2.283c0.551 0 1-0.449 1-1v-5c0-0.55-0.449-1-1-1zM4.603 17l1.198-7.003h8.399l1.199 7.003h-10.796z"></path>
</symbol>
<symbol id="icon-flag1" viewBox="0 0 32 32">
<path d="M8 10.5v-6.5c0 0 2.976-2.236 8 0s8 0 8 0v11c0 0-2.977 2.187-8 0-3.311-1.442-5.734-0.983-7-0.502v14.502h-1v-18.5zM15.521 4.9c-4.098-1.802-6.521-0.3-6.521-0.3v8.838c0 0 3.154-1.267 7.377 0.645 3.955 1.79 6.641 0.34 6.641 0.34v-8.923c0 0-3.023 1.367-7.497-0.6v0 0z"></path>
</symbol>
<symbol id="icon-flag2" viewBox="0 0 32 32">
<path d="M8 10.494v18.5h1v-14.502c1.266-0.48 3.689-0.94 7 0.502 5.023 2.187 8 0 8 0v-11c0 0-2.976 2.236-8 0s-8 0-8 0v6.5z"></path>
</symbol>
<symbol id="icon-error" viewBox="0 0 24 24">
<path d="M12.984 12.984v-6h-1.969v6h1.969zM12.984 17.016v-2.016h-1.969v2.016h1.969zM12 2.016q4.125 0 7.055 2.93t2.93 7.055-2.93 7.055-7.055 2.93-7.055-2.93-2.93-7.055 2.93-7.055 7.055-2.93z"></path>
</symbol>
<symbol id="icon-error_outline1" viewBox="0 0 24 24">
<path d="M12 20.016q3.281 0 5.648-2.367t2.367-5.648-2.367-5.648-5.648-2.367-5.648 2.367-2.367 5.648 2.367 5.648 5.648 2.367zM12 2.016q4.125 0 7.055 2.93t2.93 7.055-2.93 7.055-7.055 2.93-7.055-2.93-2.93-7.055 2.93-7.055 7.055-2.93zM11.016 6.984h1.969v6h-1.969v-6zM11.016 15h1.969v2.016h-1.969v-2.016z"></path>
</symbol>
<symbol id="icon-warningreport_problem1" viewBox="0 0 24 24">
<path d="M12.984 14.016v-4.031h-1.969v4.031h1.969zM12.984 18v-2.016h-1.969v2.016h1.969zM0.984 21l11.016-18.984 11.016 18.984h-22.031z"></path>
</symbol>
<symbol id="icon-loopsync" viewBox="0 0 24 24">
<path d="M12 18v-3l3.984 3.984-3.984 4.031v-3q-3.281 0-5.648-2.367t-2.367-5.648q0-2.344 1.266-4.266l1.453 1.453q-0.703 1.266-0.703 2.813 0 2.484 1.758 4.242t4.242 1.758zM12 3.984q3.281 0 5.648 2.367t2.367 5.648q0 2.344-1.266 4.266l-1.453-1.453q0.703-1.266 0.703-2.813 0-2.484-1.758-4.242t-4.242-1.758v3l-3.984-3.984 3.984-4.031v3z"></path>
</symbol>
<symbol id="icon-mic" viewBox="0 0 24 24">
<path d="M17.297 11.016h1.688q0 2.531-1.758 4.43t-4.242 2.273v3.281h-1.969v-3.281q-2.484-0.375-4.242-2.273t-1.758-4.43h1.688q0 2.203 1.57 3.633t3.727 1.43 3.727-1.43 1.57-3.633zM12 14.016q-1.219 0-2.109-0.891t-0.891-2.109v-6q0-1.219 0.891-2.109t2.109-0.891 2.109 0.891 0.891 2.109v6q0 1.219-0.891 2.109t-2.109 0.891z"></path>
</symbol>
<symbol id="icon-mic_none" viewBox="0 0 24 24">
<path d="M17.297 11.016h1.688q0 2.531-1.758 4.43t-4.242 2.273v3.281h-1.969v-3.281q-2.484-0.375-4.242-2.273t-1.758-4.43h1.688q0 2.203 1.57 3.633t3.727 1.43 3.727-1.43 1.57-3.633zM10.781 4.922v6.188q0 0.469 0.352 0.82t0.867 0.352q0.469 0 0.82-0.328t0.352-0.844l0.047-6.188q0-0.516-0.375-0.867t-0.844-0.352-0.844 0.352-0.375 0.867zM12 14.016q-1.219 0-2.109-0.891t-0.891-2.109v-6q0-1.219 0.891-2.109t2.109-0.891 2.109 0.891 0.891 2.109v6q0 1.219-0.891 2.109t-2.109 0.891z"></path>
</symbol>
<symbol id="icon-mic_off" viewBox="0 0 24 24">
<path d="M4.266 3l16.734 16.734-1.266 1.266-4.172-4.172q-1.031 0.656-2.578 0.891v3.281h-1.969v-3.281q-2.484-0.375-4.242-2.273t-1.758-4.43h1.688q0 2.203 1.57 3.633t3.727 1.43q1.172 0 2.297-0.516l-1.641-1.641q-0.375 0.094-0.656 0.094-1.219 0-2.109-0.891t-0.891-2.109v-0.75l-6-6zM15 11.156l-6-5.953v-0.188q0-1.219 0.891-2.109t2.109-0.891 2.109 0.891 0.891 2.109v6.141zM18.984 11.016q0 1.734-0.891 3.281l-1.219-1.266q0.422-0.938 0.422-2.016h1.688z"></path>
</symbol>
<symbol id="icon-not_interesteddo_not_disturb1" viewBox="0 0 24 24">
<path d="M18.328 16.922q1.688-2.109 1.688-4.922 0-3.281-2.367-5.648t-5.648-2.367q-1.125 0-2.578 0.492t-2.344 1.195zM12 20.016q1.125 0 2.578-0.492t2.344-1.195l-11.25-11.25q-1.688 2.109-1.688 4.922 0 3.281 2.367 5.648t5.648 2.367zM12 2.016q4.125 0 7.055 2.93t2.93 7.055-2.93 7.055-7.055 2.93-7.055-2.93-2.93-7.055 2.93-7.055 7.055-2.93z"></path>
</symbol>
<symbol id="icon-businessdomain" viewBox="0 0 24 24">
<path d="M18 15v2.016h-2.016v-2.016h2.016zM18 11.016v1.969h-2.016v-1.969h2.016zM20.016 18.984v-9.984h-8.016v2.016h2.016v1.969h-2.016v2.016h2.016v2.016h-2.016v1.969h8.016zM9.984 6.984v-1.969h-1.969v1.969h1.969zM9.984 11.016v-2.016h-1.969v2.016h1.969zM9.984 15v-2.016h-1.969v2.016h1.969zM9.984 18.984v-1.969h-1.969v1.969h1.969zM6 6.984v-1.969h-2.016v1.969h2.016zM6 11.016v-2.016h-2.016v2.016h2.016zM6 15v-2.016h-2.016v2.016h2.016zM6 18.984v-1.969h-2.016v1.969h2.016zM12 6.984h9.984v14.016h-19.969v-18h9.984v3.984z"></path>
</symbol>
<symbol id="icon-chat" viewBox="0 0 24 24">
<path d="M18 8.016v-2.016h-12v2.016h12zM14.016 14.016v-2.016h-8.016v2.016h8.016zM6 9v2.016h12v-2.016h-12zM20.016 2.016q0.797 0 1.383 0.586t0.586 1.383v12q0 0.797-0.586 1.406t-1.383 0.609h-14.016l-3.984 3.984v-18q0-0.797 0.586-1.383t1.383-0.586h16.031z"></path>
</symbol>
<symbol id="icon-comment" viewBox="0 0 24 24">
<path d="M18 8.016v-2.016h-12v2.016h12zM18 11.016v-2.016h-12v2.016h12zM18 14.016v-2.016h-12v2.016h12zM21.984 3.984v18l-3.984-3.984h-14.016q-0.797 0-1.383-0.609t-0.586-1.406v-12q0-0.797 0.586-1.383t1.383-0.586h16.031q0.797 0 1.383 0.586t0.586 1.383z"></path>
</symbol>
<symbol id="icon-chat_bubble" viewBox="0 0 24 24">
<path d="M20.016 2.016q0.797 0 1.383 0.586t0.586 1.383v12q0 0.797-0.586 1.406t-1.383 0.609h-14.016l-3.984 3.984v-18q0-0.797 0.586-1.383t1.383-0.586h16.031z"></path>
</symbol>
<symbol id="icon-chat_bubble_outline" viewBox="0 0 24 24">
<path d="M20.016 15.984v-12h-16.031v14.016l2.016-2.016h14.016zM20.016 2.016q0.797 0 1.383 0.586t0.586 1.383v12q0 0.797-0.586 1.406t-1.383 0.609h-14.016l-3.984 3.984v-18q0-0.797 0.586-1.383t1.383-0.586h16.031z"></path>
</symbol>
<symbol id="icon-add" viewBox="0 0 24 24">
<path d="M18.984 12.984h-6v6h-1.969v-6h-6v-1.969h6v-6h1.969v6h6v1.969z"></path>
</symbol>
<symbol id="icon-block" viewBox="0 0 24 24">
<path d="M12 20.016q3.281 0 5.648-2.367t2.367-5.648q0-1.125-0.492-2.578t-1.195-2.344l-11.25 11.25q2.109 1.688 4.922 1.688zM3.984 12q0 1.125 0.492 2.578t1.195 2.344l11.25-11.25q-2.109-1.688-4.922-1.688-3.281 0-5.648 2.367t-2.367 5.648zM12 2.016q4.125 0 7.055 2.93t2.93 7.055-2.93 7.055-7.055 2.93-7.055-2.93-2.93-7.055 2.93-7.055 7.055-2.93z"></path>
</symbol>
<symbol id="icon-clearclose1" viewBox="0 0 24 24">
<path d="M18.984 6.422l-5.578 5.578 5.578 5.578-1.406 1.406-5.578-5.578-5.578 5.578-1.406-1.406 5.578-5.578-5.578-5.578 1.406-1.406 5.578 5.578 5.578-5.578z"></path>
</symbol>
<symbol id="icon-content_copy" viewBox="0 0 24 24">
<path d="M18.984 21v-14.016h-10.969v14.016h10.969zM18.984 5.016q0.797 0 1.406 0.586t0.609 1.383v14.016q0 0.797-0.609 1.406t-1.406 0.609h-10.969q-0.797 0-1.406-0.609t-0.609-1.406v-14.016q0-0.797 0.609-1.383t1.406-0.586h10.969zM15.984 0.984v2.016h-12v14.016h-1.969v-14.016q0-0.797 0.586-1.406t1.383-0.609h12z"></path>
</symbol>
<symbol id="icon-content_cut" viewBox="0 0 24 24">
<path d="M18.984 3h3v0.984l-6.984 7.031-2.016-2.016zM12 12.516q0.516 0 0.516-0.516t-0.516-0.516-0.516 0.516 0.516 0.516zM6 20.016q0.797 0 1.406-0.586t0.609-1.43-0.609-1.43-1.406-0.586-1.406 0.586-0.609 1.43 0.609 1.43 1.406 0.586zM6 8.016q0.797 0 1.406-0.586t0.609-1.43-0.609-1.43-1.406-0.586-1.406 0.586-0.609 1.43 0.609 1.43 1.406 0.586zM9.656 7.641l12.328 12.375v0.984h-3l-6.984-6.984-2.344 2.344q0.328 0.703 0.328 1.641 0 1.641-1.172 2.813t-2.813 1.172-2.813-1.172-1.172-2.813 1.172-2.813 2.813-1.172q0.938 0 1.641 0.328l2.344-2.344-2.344-2.344q-0.703 0.328-1.641 0.328-1.641 0-2.813-1.172t-1.172-2.813 1.172-2.813 2.813-1.172 2.813 1.172 1.172 2.813q0 0.938-0.328 1.641z"></path>
</symbol>
<symbol id="icon-content_paste1" viewBox="0 0 24 24">
<path d="M18.984 20.016v-16.031h-1.969v3h-10.031v-3h-1.969v16.031h13.969zM12 2.016q-0.422 0-0.703 0.281t-0.281 0.703 0.281 0.703 0.703 0.281 0.703-0.281 0.281-0.703-0.281-0.703-0.703-0.281zM18.984 2.016q0.797 0 1.406 0.586t0.609 1.383v16.031q0 0.797-0.609 1.383t-1.406 0.586h-13.969q-0.797 0-1.406-0.586t-0.609-1.383v-16.031q0-0.797 0.609-1.383t1.406-0.586h4.172q0.328-0.891 1.078-1.453t1.734-0.563 1.734 0.563 1.078 1.453h4.172z"></path>
</symbol>
<symbol id="icon-createmode_editedit1" viewBox="0 0 24 24">
<path d="M20.719 7.031l-1.828 1.828-3.75-3.75 1.828-1.828q0.281-0.281 0.703-0.281t0.703 0.281l2.344 2.344q0.281 0.281 0.281 0.703t-0.281 0.703zM3 17.25l11.063-11.063 3.75 3.75-11.063 11.063h-3.75v-3.75z"></path>
</symbol>
<symbol id="icon-filter_list" viewBox="0 0 24 24">
<path d="M6 12.984v-1.969h12v1.969h-12zM3 6h18v2.016h-18v-2.016zM9.984 18v-2.016h4.031v2.016h-4.031z"></path>
</symbol>
<symbol id="icon-flagassistant_photo" viewBox="0 0 24 24">
<path d="M14.391 6h5.625v9.984h-7.031l-0.375-1.969h-5.625v6.984h-1.969v-17.016h9z"></path>
</symbol>
<symbol id="icon-gesture1" viewBox="0 0 24 24">
<path d="M13.875 18.563q0.656 0 1.313-0.867t0.844-2.648q-1.406 0.375-2.156 1.266t-0.75 1.5q0 0.328 0.234 0.539t0.516 0.211zM4.594 6.891l-1.734-1.688q0.469-0.563 0.844-0.938 1.266-1.266 2.719-1.266 0.891 0 1.711 0.703t0.82 2.156q0 1.406-1.313 3.281-1.313 1.828-1.828 3.516-0.281 0.797-0.164 1.359t0.492 0.563q0.422 0 1.125-0.844 1.031-1.031 2.297-2.719 2.25-2.813 4.922-2.813 1.969 0 2.93 1.289t1.102 2.883h2.484v2.484h-2.438q-0.281 3.234-1.734 4.688t-3 1.453q-1.313 0-2.25-0.914t-0.938-2.18q0-1.547 1.406-3.234t3.984-2.156q-0.047-0.375-0.070-0.516t-0.141-0.445-0.281-0.445-0.492-0.258-0.797-0.117q-1.313 0-4.078 3.422-0.797 0.984-1.102 1.336t-0.867 0.82-1.078 0.609q-1.641 0.516-2.813-0.609t-1.172-2.813q0-0.703 0.258-1.547t0.68-1.641 0.797-1.43 0.727-1.148 0.398-0.563q0.797-1.313 0.281-1.5-0.328-0.141-1.688 1.219z"></path>
</symbol>
<symbol id="icon-remove1" viewBox="0 0 24 24">
<path d="M18.984 12.984h-13.969v-1.969h13.969v1.969z"></path>
</symbol>
<symbol id="icon-outlined_flag" viewBox="0 0 24 24">
<path d="M18 14.016v-6h-5.016l-0.984-2.016h-5.016v6h6l1.031 2.016h3.984zM14.016 6h6v9.984h-7.031l-0.984-1.969h-5.016v6.984h-1.969v-17.016h7.969z"></path>
</symbol>
<symbol id="icon-access_alarmalarm1" viewBox="0 0 24 24">
<path d="M12 20.016q2.906 0 4.945-2.063t2.039-4.969-2.039-4.945-4.945-2.039-4.945 2.039-2.039 4.945 2.039 4.969 4.945 2.063zM12 3.984q3.75 0 6.375 2.648t2.625 6.352-2.625 6.352-6.375 2.648-6.375-2.648-2.625-6.352 2.625-6.352 6.375-2.648zM12.516 8.016v5.25l3.984 2.344-0.75 1.219-4.734-2.813v-6h1.5zM7.875 3.375l-4.594 3.844-1.266-1.5 4.594-3.844zM21.984 5.719l-1.266 1.547-4.594-3.891 1.266-1.5z"></path>
</symbol>
<symbol id="icon-access_alarms1" viewBox="0 0 24 24">
<path d="M12 20.016q2.906 0 4.945-2.063t2.039-4.969-2.039-4.945-4.945-2.039-4.945 2.039-2.039 4.945 2.039 4.969 4.945 2.063zM12 3.984q3.75 0 6.375 2.625t2.625 6.375-2.625 6.375-6.375 2.625-6.375-2.625-2.625-6.375 2.625-6.375 6.375-2.625zM12.516 8.016v5.297l3.984 2.391-0.797 1.219-4.688-2.906v-6h1.5zM7.922 3.422l-4.641 3.797-1.266-1.5 4.594-3.797zM21.984 5.719l-1.266 1.5-4.641-3.938 1.313-1.5z"></path>
</symbol>
<symbol id="icon-access_timequery_builderschedule1" viewBox="0 0 24 24">
<path d="M12.516 6.984v5.25l4.5 2.672-0.75 1.266-5.25-3.188v-6h1.5zM12 20.016q3.281 0 5.648-2.367t2.367-5.648-2.367-5.648-5.648-2.367-5.648 2.367-2.367 5.648 2.367 5.648 5.648 2.367zM12 2.016q4.125 0 7.055 2.93t2.93 7.055-2.93 7.055-7.055 2.93-7.055-2.93-2.93-7.055 2.93-7.055 7.055-2.93z"></path>
</symbol>
<symbol id="icon-insert_chartpollassessment1" viewBox="0 0 24 24">
<path d="M17.016 17.016v-4.031h-2.016v4.031h2.016zM12.984 17.016v-10.031h-1.969v10.031h1.969zM9 17.016v-7.031h-2.016v7.031h2.016zM18.984 3q0.797 0 1.406 0.609t0.609 1.406v13.969q0 0.797-0.609 1.406t-1.406 0.609h-13.969q-0.797 0-1.406-0.609t-0.609-1.406v-13.969q0-0.797 0.609-1.406t1.406-0.609h13.969z"></path>
</symbol>
<symbol id="icon-insert_comment" viewBox="0 0 24 24">
<path d="M18 8.016v-2.016h-12v2.016h12zM18 11.016v-2.016h-12v2.016h12zM18 14.016v-2.016h-12v2.016h12zM20.016 2.016q0.797 0 1.383 0.586t0.586 1.383v18l-3.984-3.984h-14.016q-0.797 0-1.383-0.609t-0.586-1.406v-12q0-0.797 0.586-1.383t1.383-0.586h16.031z"></path>
</symbol>
<symbol id="icon-insert_invitationevent1" viewBox="0 0 24 24">
<path d="M18.984 18.984v-10.969h-13.969v10.969h13.969zM15.984 0.984h2.016v2.016h0.984q0.797 0 1.406 0.609t0.609 1.406v13.969q0 0.797-0.609 1.406t-1.406 0.609h-13.969q-0.844 0-1.43-0.586t-0.586-1.43v-13.969q0-0.797 0.586-1.406t1.43-0.609h0.984v-2.016h2.016v2.016h7.969v-2.016zM17.016 12v5.016h-5.016v-5.016h5.016z"></path>
</symbol>
<symbol id="icon-insert_photoimagephoto" viewBox="0 0 24 24">
<path d="M8.484 13.5l-3.469 4.5h13.969l-4.5-6-3.469 4.5zM21 18.984q0 0.797-0.609 1.406t-1.406 0.609h-13.969q-0.797 0-1.406-0.609t-0.609-1.406v-13.969q0-0.797 0.609-1.406t1.406-0.609h13.969q0.797 0 1.406 0.609t0.609 1.406v13.969z"></path>
</symbol>
<symbol id="icon-mode_comment" viewBox="0 0 24 24">
<path d="M21.984 3.984v18l-3.984-3.984h-14.016q-0.797 0-1.383-0.609t-0.586-1.406v-12q0-0.797 0.586-1.383t1.383-0.586h16.031q0.797 0 1.383 0.586t0.586 1.383z"></path>
</symbol>
<symbol id="icon-insert_chart_outlined1" viewBox="0 0 24 24">
<path d="M19.5 3q0.797 0 1.406 0.609t0.609 1.406v13.969q0 0.797-0.609 1.406t-1.406 0.609h-15q-0.797 0-1.406-0.609t-0.609-1.406v-13.969q0-0.797 0.609-1.406t1.406-0.609h15zM19.5 19.078v-14.063h-15v14.063h15zM17.016 17.016h-2.016v-4.031h2.016v4.031zM12.984 17.016h-1.969v-10.031h1.969v10.031zM9 17.016h-2.016v-7.031h2.016v7.031z"></path>
</symbol>
<symbol id="icon-bar_chart" viewBox="0 0 24 24">
<path d="M16.219 12.984h2.766v6h-2.766v-6zM10.594 5.016h2.813v13.969h-2.813v-13.969zM5.016 9.188h3v9.797h-3v-9.797z"></path>
</symbol>
<symbol id="icon-cloud_download1" viewBox="0 0 24 24">
<path d="M17.016 12.984h-3v-3.984h-4.031v3.984h-3l5.016 5.016zM19.359 10.031q1.922 0.141 3.281 1.57t1.359 3.398q0 2.063-1.477 3.539t-3.539 1.477h-12.984q-2.484 0-4.242-1.758t-1.758-4.242q0-2.203 1.57-3.961t3.773-1.992q0.984-1.828 2.766-2.953t3.891-1.125q2.531 0 4.711 1.781t2.648 4.266z"></path>
</symbol>
<symbol id="icon-cloud_off1" viewBox="0 0 24 24">
<path d="M7.734 9.984h-1.734q-1.641 0-2.813 1.195t-1.172 2.836 1.172 2.813 2.813 1.172h9.75zM3 5.25l1.266-1.266 16.734 16.734-1.266 1.266-2.016-1.969h-11.719q-2.484 0-4.242-1.758t-1.758-4.242q0-2.438 1.688-4.172t4.078-1.828zM19.359 10.031q1.922 0.141 3.281 1.57t1.359 3.398q0 2.578-2.109 4.078l-1.453-1.453q1.547-0.844 1.547-2.625 0-1.219-0.891-2.109t-2.109-0.891h-1.5v-0.516q0-2.297-1.594-3.891t-3.891-1.594q-1.313 0-2.531 0.609l-1.5-1.453q1.828-1.172 4.031-1.172 2.531 0 4.711 1.781t2.648 4.266z"></path>
</symbol>
<symbol id="icon-cloud_queue1" viewBox="0 0 24 24">
<path d="M18.984 18q1.219 0 2.109-0.891t0.891-2.109-0.891-2.109-2.109-0.891h-1.5v-0.516q0-2.297-1.594-3.891t-3.891-1.594q-1.875 0-3.328 1.125t-1.969 2.859h-0.703q-1.641 0-2.813 1.195t-1.172 2.836 1.172 2.813 2.813 1.172h12.984zM19.359 10.031q1.922 0.141 3.281 1.57t1.359 3.398q0 2.063-1.477 3.539t-3.539 1.477h-12.984q-2.484 0-4.242-1.758t-1.758-4.242q0-2.203 1.57-3.961t3.773-1.992q0.984-1.828 2.766-2.953t3.891-1.125q2.531 0 4.711 1.781t2.648 4.266z"></path>
</symbol>
<symbol id="icon-cloud_uploadbackup1" viewBox="0 0 24 24">
<path d="M14.016 12.984h3l-5.016-4.969-5.016 4.969h3v4.031h4.031v-4.031zM19.359 10.031q1.922 0.141 3.281 1.57t1.359 3.398q0 2.063-1.477 3.539t-3.539 1.477h-12.984q-2.484 0-4.242-1.758t-1.758-4.242q0-2.203 1.57-3.961t3.773-1.992q0.984-1.828 2.766-2.953t3.891-1.125q2.531 0 4.711 1.781t2.648 4.266z"></path>
</symbol>
<symbol id="icon-file_downloadget_app1" viewBox="0 0 24 24">
<path d="M5.016 18h13.969v2.016h-13.969v-2.016zM18.984 9l-6.984 6.984-6.984-6.984h3.984v-6h6v6h3.984z"></path>
</symbol>
<symbol id="icon-file_upload1" viewBox="0 0 24 24">
<path d="M5.016 18h13.969v2.016h-13.969v-2.016zM9 15.984v-6h-3.984l6.984-6.984 6.984 6.984h-3.984v6h-6z"></path>
</symbol>
<symbol id="icon-folder5" viewBox="0 0 24 24">
<path d="M9.984 3.984l2.016 2.016h8.016q0.797 0 1.383 0.609t0.586 1.406v9.984q0 0.797-0.586 1.406t-1.383 0.609h-16.031q-0.797 0-1.383-0.609t-0.586-1.406v-12q0-0.797 0.586-1.406t1.383-0.609h6z"></path>
</symbol>
<symbol id="icon-folder_open1" viewBox="0 0 24 24">
<path d="M20.016 18v-9.984h-16.031v9.984h16.031zM20.016 6q0.797 0 1.383 0.609t0.586 1.406v9.984q0 0.797-0.586 1.406t-1.383 0.609h-16.031q-0.797 0-1.383-0.609t-0.586-1.406v-12q0-0.797 0.586-1.406t1.383-0.609h6l2.016 2.016h8.016z"></path>
</symbol>
<symbol id="icon-folder_shared1" viewBox="0 0 24 24">
<path d="M18.984 17.016v-1.031q0-0.891-1.383-1.43t-2.602-0.539-2.602 0.539-1.383 1.43v1.031h7.969zM15 9q-0.797 0-1.406 0.609t-0.609 1.406 0.609 1.383 1.406 0.586 1.406-0.586 0.609-1.383-0.609-1.406-1.406-0.609zM20.016 6q0.797 0 1.383 0.609t0.586 1.406v9.984q0 0.797-0.586 1.406t-1.383 0.609h-16.031q-0.797 0-1.383-0.609t-0.586-1.406v-12q0-0.797 0.586-1.406t1.383-0.609h6l2.016 2.016h8.016z"></path>
</symbol>
<symbol id="icon-create_new_folder1" viewBox="0 0 24 24">
<path d="M18.984 14.016v-2.016h-3v-3h-1.969v3h-3v2.016h3v3h1.969v-3h3zM20.016 6q0.844 0 1.406 0.586t0.563 1.43v9.984q0 0.844-0.563 1.43t-1.406 0.586h-16.031q-0.844 0-1.406-0.586t-0.563-1.43v-12q0-0.844 0.563-1.43t1.406-0.586h6l2.016 2.016h8.016z"></path>
</symbol>
<symbol id="icon-developer_board" viewBox="0 0 24 24">
<path d="M12 11.016h3.984v6h-3.984v-6zM6 6.984h5.016v5.016h-5.016v-5.016zM12 6.984h3.984v3h-3.984v-3zM6 12.984h5.016v4.031h-5.016v-4.031zM18 18.984v-13.969h-14.016v13.969h14.016zM21.984 9h-1.969v2.016h1.969v1.969h-1.969v2.016h1.969v2.016h-1.969v1.969q0 0.797-0.609 1.406t-1.406 0.609h-14.016q-0.797 0-1.383-0.609t-0.586-1.406v-13.969q0-0.797 0.586-1.406t1.383-0.609h14.016q0.797 0 1.406 0.609t0.609 1.406v1.969h1.969v2.016z"></path>
</symbol>
<symbol id="icon-keyboard_voice" viewBox="0 0 24 24">
<path d="M17.297 12h1.688q0 2.531-1.758 4.43t-4.242 2.273v3.281h-1.969v-3.281q-2.484-0.375-4.242-2.273t-1.758-4.43h1.688q0 2.203 1.57 3.656t3.727 1.453 3.727-1.453 1.57-3.656zM12 15q-1.219 0-2.109-0.891t-0.891-2.109v-6q0-1.219 0.891-2.109t2.109-0.891 2.109 0.891 0.891 2.109v6q0 1.219-0.891 2.109t-2.109 0.891z"></path>
</symbol>
<symbol id="icon-dehaze1" viewBox="0 0 24 24">
<path d="M2.016 5.484h19.969v2.016h-19.969v-2.016zM2.016 10.5h19.969v2.016h-19.969v-2.016zM2.016 15.516h19.969v1.969h-19.969v-1.969z"></path>
</symbol>
<symbol id="icon-filter_tilt_shift" viewBox="0 0 24 24">
<path d="M5.672 19.734l1.406-1.406q1.688 1.313 3.938 1.594v2.016q-1.266-0.141-2.836-0.797t-2.508-1.406zM12.984 19.922q2.203-0.281 3.891-1.594l1.453 1.406q-2.391 1.922-5.344 2.203v-2.016zM18.328 16.922q1.359-1.688 1.594-3.891h2.016q-0.141 1.219-0.797 2.789t-1.406 2.508zM15 12q0 1.219-0.891 2.109t-2.109 0.891-2.109-0.891-0.891-2.109 0.891-2.109 2.109-0.891 2.109 0.891 0.891 2.109zM4.078 12.984q0.234 2.203 1.594 3.891l-1.406 1.453q-1.922-2.391-2.203-5.344h2.016zM5.672 7.078q-1.313 1.734-1.594 3.938h-2.016q0.141-1.266 0.797-2.836t1.406-2.508zM19.922 11.016q-0.281-2.25-1.594-3.938l1.406-1.406q1.922 2.391 2.203 5.344h-2.016zM18.328 4.266l-1.406 1.406q-1.734-1.313-3.938-1.594v-2.016q1.266 0.141 2.836 0.797t2.508 1.406zM11.016 4.078q-2.25 0.281-3.938 1.594l-1.406-1.406q2.391-1.922 5.344-2.203v2.016z"></path>
</symbol>
<symbol id="icon-timer" viewBox="0 0 24 24">
<path d="M12 20.016q2.906 0 4.945-2.063t2.039-4.969-2.039-4.945-4.945-2.039-4.945 2.039-2.039 4.945 2.039 4.969 4.945 2.063zM19.031 7.406q0.797 1.031 1.383 2.648t0.586 2.93q0 3.703-2.625 6.352t-6.375 2.648-6.375-2.648-2.625-6.352 2.625-6.352 6.375-2.648q1.266 0 2.93 0.609t2.695 1.406l1.406-1.453q0.75 0.609 1.406 1.406zM11.016 14.016v-6h1.969v6h-1.969zM15 0.984v2.016h-6v-2.016h6z"></path>
</symbol>
<symbol id="icon-timer_off" viewBox="0 0 24 24">
<path d="M12 20.016q1.828 0 3.516-0.984l-9.563-9.563q-0.938 1.594-0.938 3.516 0 2.906 2.039 4.969t4.945 2.063zM3 3.984l17.766 17.766-1.266 1.266-2.531-2.531q-2.344 1.5-4.969 1.5-3.75 0-6.375-2.648t-2.625-6.352q0-1.125 0.445-2.602t1.055-2.367l-2.766-2.766zM11.016 9.422v-1.406h1.969v3.422zM15 0.984v2.016h-6v-2.016h6zM19.031 4.547l1.406 1.406-1.406 1.453q1.969 2.484 1.969 5.578v0.047q0 1.125-0.445 2.578t-1.055 2.344l-1.453-1.453q0.938-1.594 0.938-3.516 0-2.906-2.039-4.945t-4.945-2.039q-1.875 0-3.469 0.938l-1.5-1.453q2.391-1.5 4.969-1.5 1.313 0 2.953 0.586t2.672 1.383z"></path>
</symbol>
<symbol id="icon-tune1" viewBox="0 0 24 24">
<path d="M15 9v-6h2.016v2.016h3.984v1.969h-3.984v2.016h-2.016zM21 12.984h-9.984v-1.969h9.984v1.969zM6.984 9h2.016v6h-2.016v-2.016h-3.984v-1.969h3.984v-2.016zM12.984 21h-1.969v-6h1.969v2.016h8.016v1.969h-8.016v2.016zM3 5.016h9.984v1.969h-9.984v-1.969zM3 17.016h6v1.969h-6v-1.969z"></path>
</symbol>
<symbol id="icon-local_convenience_store" viewBox="0 0 24 24">
<path d="M15.984 12v-5.016h-0.984v2.016h-0.984v-2.016h-1.031v3h2.016v2.016h0.984zM11.016 9.984v-3h-3v1.031h1.969v0.984h-1.969v3h3v-0.984h-2.016v-1.031h2.016zM18.984 6.984h3v13.031h-7.969v-4.031h-4.031v4.031h-7.969v-13.031h3v-3h13.969v3z"></path>
</symbol>
<symbol id="icon-local_hospital1" viewBox="0 0 24 24">
<path d="M18 14.016v-4.031h-3.984v-3.984h-4.031v3.984h-3.984v4.031h3.984v3.984h4.031v-3.984h3.984zM18.984 3q0.797 0 1.406 0.609t0.609 1.406v13.969q0 0.797-0.609 1.406t-1.406 0.609h-13.969q-0.797 0-1.406-0.609t-0.609-1.406v-13.969q0-0.797 0.609-1.406t1.406-0.609h13.969z"></path>
</symbol>
<symbol id="icon-local_laundry_service" viewBox="0 0 24 24">
<path d="M12 20.016q2.484 0 4.242-1.758t1.758-4.242-1.758-4.242-4.242-1.758-4.242 1.758-1.758 4.242 1.758 4.242 4.242 1.758zM6.984 3.984q-0.422 0-0.703 0.305t-0.281 0.727 0.281 0.703 0.703 0.281 0.727-0.281 0.305-0.703-0.305-0.727-0.727-0.305zM9.984 3.984q-0.422 0-0.703 0.305t-0.281 0.727 0.281 0.703 0.703 0.281 0.727-0.281 0.305-0.703-0.305-0.727-0.727-0.305zM18 2.016q0.844 0 1.43 0.563t0.586 1.406v16.031q0 0.844-0.586 1.406t-1.43 0.563h-12q-0.844 0-1.43-0.563t-0.586-1.406v-16.031q0-0.844 0.586-1.406t1.43-0.563h12zM9.188 16.828l5.625-5.672q1.172 1.172 1.172 2.859 0 1.641-1.172 2.813t-2.813 1.172-2.813-1.172z"></path>
</symbol>
<symbol id="icon-local_offer" viewBox="0 0 24 24">
<path d="M5.484 6.984q0.609 0 1.055-0.445t0.445-1.055-0.445-1.055-1.055-0.445-1.055 0.445-0.445 1.055 0.445 1.055 1.055 0.445zM21.422 11.578q0.563 0.563 0.563 1.406t-0.563 1.406l-7.031 7.031q-0.563 0.563-1.406 0.563t-1.406-0.563l-9-9q-0.563-0.563-0.563-1.406v-7.031q0-0.797 0.586-1.383t1.383-0.586h7.031q0.844 0 1.406 0.563z"></path>
</symbol>
<symbol id="icon-apps" viewBox="0 0 24 24">
<path d="M15.984 20.016v-4.031h4.031v4.031h-4.031zM15.984 14.016v-4.031h4.031v4.031h-4.031zM9.984 8.016v-4.031h4.031v4.031h-4.031zM15.984 3.984h4.031v4.031h-4.031v-4.031zM9.984 14.016v-4.031h4.031v4.031h-4.031zM3.984 14.016v-4.031h4.031v4.031h-4.031zM3.984 20.016v-4.031h4.031v4.031h-4.031zM9.984 20.016v-4.031h4.031v4.031h-4.031zM3.984 8.016v-4.031h4.031v4.031h-4.031z"></path>
</symbol>
<symbol id="icon-refresh" viewBox="0 0 24 24">
<path d="M17.672 6.328l2.344-2.344v7.031h-7.031l3.234-3.234q-1.781-1.781-4.219-1.781-2.484 0-4.242 1.758t-1.758 4.242 1.758 4.242 4.242 1.758q1.734 0 3.398-1.172t2.273-2.813h2.063q-0.656 2.625-2.813 4.313t-4.922 1.688q-3.281 0-5.625-2.344t-2.344-5.672 2.344-5.672 5.625-2.344q1.406 0 3.070 0.68t2.602 1.664z"></path>
</symbol>
<symbol id="icon-event_busy1" viewBox="0 0 24 24">
<path d="M18.984 18.984v-10.969h-13.969v10.969h13.969zM18.984 3q0.797 0 1.406 0.609t0.609 1.406v13.969q0 0.797-0.609 1.406t-1.406 0.609h-13.969q-0.844 0-1.43-0.586t-0.586-1.43v-13.969q0-0.797 0.586-1.406t1.43-0.609h0.984v-2.016h2.016v2.016h7.969v-2.016h2.016v2.016h0.984zM9.328 17.016l-1.078-1.078 2.438-2.438-2.438-2.438 1.078-1.078 2.438 2.438 2.438-2.438 1.031 1.078-2.438 2.438 2.438 2.438-1.031 1.078-2.438-2.438z"></path>
</symbol>
<symbol id="icon-event_note1" viewBox="0 0 24 24">
<path d="M14.016 14.016v1.969h-7.031v-1.969h7.031zM18.984 18.984v-10.969h-13.969v10.969h13.969zM18.984 3q0.797 0 1.406 0.609t0.609 1.406v13.969q0 0.797-0.609 1.406t-1.406 0.609h-13.969q-0.844 0-1.43-0.586t-0.586-1.43v-13.969q0-0.797 0.586-1.406t1.43-0.609h0.984v-2.016h2.016v2.016h7.969v-2.016h2.016v2.016h0.984zM17.016 9.984v2.016h-10.031v-2.016h10.031z"></path>
</symbol>
<symbol id="icon-sync_disabled" viewBox="0 0 24 24">
<path d="M20.016 3.984l-2.391 2.391q0.984 0.938 1.688 2.602t0.703 3.023q0 2.203-1.219 4.219l-1.5-1.453q0.703-1.406 0.703-2.766 0-1.031-0.516-2.25t-1.266-1.969l-2.203 2.203v-6h6zM2.859 5.391l1.266-1.266 15.703 15.75-1.266 1.266-2.344-2.344q-1.125 0.656-2.25 0.938v-2.063q0.375-0.141 0.797-0.375l-8.063-8.063q-0.703 1.406-0.703 2.766 0 1.031 0.516 2.25t1.266 1.969l2.203-2.203v6h-6l2.391-2.391q-0.984-0.938-1.688-2.602t-0.703-3.023q0-2.203 1.219-4.219zM9.984 6.328q-0.281 0.094-0.75 0.375l-1.453-1.5q1.172-0.703 2.203-0.938v2.063z"></path>
</symbol>
<symbol id="icon-sync_problem" viewBox="0 0 24 24">
<path d="M11.016 12.984v-6h1.969v6h-1.969zM21 3.984l-2.344 2.391q2.344 2.344 2.344 5.625 0 2.766-1.688 4.922t-4.313 2.813v-2.063q1.641-0.609 2.813-2.273t1.172-3.398q0-1.031-0.492-2.25t-1.242-1.969l-2.25 2.203v-6h6zM11.016 17.016v-2.016h1.969v2.016h-1.969zM3 12q0-2.766 1.688-4.922t4.313-2.813v2.063q-1.641 0.609-2.813 2.273t-1.172 3.398q0 1.031 0.492 2.25t1.242 1.969l2.25-2.203v6h-6l2.344-2.391q-2.344-2.344-2.344-5.625z"></path>
</symbol>
<symbol id="icon-no_encryption" viewBox="0 0 24 24">
<path d="M8.906 6v1.219l-1.828-1.828q0.234-1.875 1.617-3.141t3.305-1.266q2.063 0 3.539 1.477t1.477 3.539v2.016h0.984q0.797 0 1.406 0.586t0.609 1.383v8.344l-10.359-10.313h5.438v-2.016q0-1.266-0.914-2.18t-2.18-0.914-2.18 0.914-0.914 2.18zM21 21.797l-1.219 1.219-1.125-1.125q-0.375 0.094-0.656 0.094h-12q-0.797 0-1.406-0.586t-0.609-1.383v-10.031q0-1.172 1.078-1.734l-2.063-2.016 1.219-1.219z"></path>
</symbol>
<symbol id="icon-alarm_off" viewBox="0 0 24 24">
<path d="M8.016 3.281l-0.844 0.703-1.453-1.406 0.891-0.703zM16.453 18.375l-9.844-9.844q-1.594 1.969-1.594 4.453 0 2.906 2.039 4.969t4.945 2.063q2.438 0 4.453-1.641zM2.906 2.297q3.563 3.563 10.148 10.125t8.32 8.297l-1.266 1.266-2.203-2.203q-2.578 2.203-5.906 2.203-3.75 0-6.375-2.648t-2.625-6.352q0-1.359 0.656-3.094t1.547-2.766l-0.797-0.797-1.125 0.938-1.406-1.453 1.125-0.891-1.359-1.359zM21.984 5.719l-1.266 1.547-4.594-3.891 1.266-1.5zM12 6q-1.266 0-2.391 0.422l-1.547-1.5q1.969-0.938 3.938-0.938 3.75 0 6.375 2.648t2.625 6.352q0 2.063-0.891 3.938l-1.547-1.5q0.422-1.125 0.422-2.438 0-2.906-2.039-4.945t-4.945-2.039z"></path>
</symbol>
<symbol id="icon-alarm_on" viewBox="0 0 24 24">
<path d="M10.547 14.531l4.922-4.969 1.078 1.078-6 6-3.188-3.188 1.031-1.031zM12 20.016q2.906 0 4.945-2.063t2.039-4.969-2.039-4.945-4.945-2.039-4.945 2.039-2.039 4.945 2.039 4.969 4.945 2.063zM12 3.984q3.75 0 6.375 2.648t2.625 6.352-2.625 6.352-6.375 2.648-6.375-2.648-2.625-6.352 2.625-6.352 6.375-2.648zM7.875 3.375l-4.594 3.844-1.266-1.5 4.594-3.844zM21.984 5.719l-1.266 1.547-4.594-3.891 1.266-1.5z"></path>
</symbol>
<symbol id="icon-assignment1" viewBox="0 0 24 24">
<path d="M17.016 9v-2.016h-10.031v2.016h10.031zM17.016 12.984v-1.969h-10.031v1.969h10.031zM14.016 17.016v-2.016h-7.031v2.016h7.031zM12 3q-0.422 0-0.703 0.281t-0.281 0.703 0.281 0.727 0.703 0.305 0.703-0.305 0.281-0.727-0.281-0.703-0.703-0.281zM18.984 3q0.797 0 1.406 0.609t0.609 1.406v13.969q0 0.797-0.609 1.406t-1.406 0.609h-13.969q-0.797 0-1.406-0.609t-0.609-1.406v-13.969q0-0.797 0.609-1.406t1.406-0.609h4.172q0.328-0.891 1.078-1.453t1.734-0.563 1.734 0.563 1.078 1.453h4.172z"></path>
</symbol>
<symbol id="icon-assignment_ind1" viewBox="0 0 24 24">
<path d="M18 18.984v-1.406q0-1.359-2.063-2.227t-3.938-0.867-3.938 0.867-2.063 2.227v1.406h12zM12 6.984q-1.219 0-2.109 0.891t-0.891 2.109 0.891 2.109 2.109 0.891 2.109-0.891 0.891-2.109-0.891-2.109-2.109-0.891zM12 3q-0.422 0-0.703 0.281t-0.281 0.703 0.281 0.727 0.703 0.305 0.703-0.305 0.281-0.727-0.281-0.703-0.703-0.281zM18.984 3q0.797 0 1.406 0.609t0.609 1.406v13.969q0 0.797-0.609 1.406t-1.406 0.609h-13.969q-0.797 0-1.406-0.609t-0.609-1.406v-13.969q0-0.797 0.609-1.406t1.406-0.609h4.172q0.328-0.891 1.078-1.453t1.734-0.563 1.734 0.563 1.078 1.453h4.172z"></path>
</symbol>
<symbol id="icon-assignment_late" viewBox="0 0 24 24">
<path d="M12 5.016q0.422 0 0.703-0.305t0.281-0.727-0.281-0.703-0.703-0.281-0.703 0.281-0.281 0.703 0.281 0.727 0.703 0.305zM12.984 14.016v-6h-1.969v6h1.969zM12.984 18v-2.016h-1.969v2.016h1.969zM18.984 3q0.797 0 1.406 0.609t0.609 1.406v13.969q0 0.797-0.609 1.406t-1.406 0.609h-13.969q-0.797 0-1.406-0.609t-0.609-1.406v-13.969q0-0.797 0.609-1.406t1.406-0.609h4.172q0.328-0.891 1.078-1.453t1.734-0.563 1.734 0.563 1.078 1.453h4.172z"></path>
</symbol>
<symbol id="icon-assignment_return" viewBox="0 0 24 24">
<path d="M15.984 15v-3.984h-3.984v-3l-5.016 4.969 5.016 5.016v-3h3.984zM12 3q-0.422 0-0.703 0.281t-0.281 0.703 0.281 0.727 0.703 0.305 0.703-0.305 0.281-0.727-0.281-0.703-0.703-0.281zM18.984 3q0.797 0 1.406 0.609t0.609 1.406v13.969q0 0.797-0.609 1.406t-1.406 0.609h-13.969q-0.797 0-1.406-0.609t-0.609-1.406v-13.969q0-0.797 0.609-1.406t1.406-0.609h4.172q0.328-0.891 1.078-1.453t1.734-0.563 1.734 0.563 1.078 1.453h4.172z"></path>
</symbol>
<symbol id="icon-assignment_returned" viewBox="0 0 24 24">
<path d="M12 18l5.016-5.016h-3v-3.984h-4.031v3.984h-3zM12 3q-0.422 0-0.703 0.281t-0.281 0.703 0.281 0.727 0.703 0.305 0.703-0.305 0.281-0.727-0.281-0.703-0.703-0.281zM18.984 3q0.797 0 1.406 0.609t0.609 1.406v13.969q0 0.797-0.609 1.406t-1.406 0.609h-13.969q-0.797 0-1.406-0.609t-0.609-1.406v-13.969q0-0.797 0.609-1.406t1.406-0.609h4.172q0.328-0.891 1.078-1.453t1.734-0.563 1.734 0.563 1.078 1.453h4.172z"></path>
</symbol>
<symbol id="icon-assignment_turned_in" viewBox="0 0 24 24">
<path d="M9.984 17.016l8.016-8.016-1.406-1.406-6.609 6.563-2.578-2.578-1.406 1.406zM12 3q-0.422 0-0.703 0.281t-0.281 0.703 0.281 0.727 0.703 0.305 0.703-0.305 0.281-0.727-0.281-0.703-0.703-0.281zM18.984 3q0.797 0 1.406 0.609t0.609 1.406v13.969q0 0.797-0.609 1.406t-1.406 0.609h-13.969q-0.797 0-1.406-0.609t-0.609-1.406v-13.969q0-0.797 0.609-1.406t1.406-0.609h4.172q0.328-0.891 1.078-1.453t1.734-0.563 1.734 0.563 1.078 1.453h4.172z"></path>
</symbol>
<symbol id="icon-autorenew" viewBox="0 0 24 24">
<path d="M18.75 7.734q1.266 1.922 1.266 4.266 0 3.281-2.367 5.648t-5.648 2.367v3l-3.984-4.031 3.984-3.984v3q2.484 0 4.242-1.758t1.758-4.242q0-1.406-0.703-2.813zM12 6q-2.484 0-4.242 1.758t-1.758 4.242q0 1.5 0.703 2.813l-1.453 1.453q-1.266-1.922-1.266-4.266 0-3.281 2.367-5.648t5.648-2.367v-3l3.984 4.031-3.984 3.984v-3z"></path>
</symbol>
<symbol id="icon-bookmarkturned_in" viewBox="0 0 24 24">
<path d="M17.016 3q0.797 0 1.383 0.609t0.586 1.406v15.984l-6.984-3-6.984 3v-15.984q0-0.797 0.586-1.406t1.383-0.609h10.031z"></path>
</symbol>
<symbol id="icon-bookmark_outlineturned_in_not" viewBox="0 0 24 24">
<path d="M17.016 18v-12.984h-10.031v12.984l5.016-2.203zM17.016 3q0.797 0 1.383 0.609t0.586 1.406v15.984l-6.984-3-6.984 3v-15.984q0-0.797 0.586-1.406t1.383-0.609h10.031z"></path>
</symbol>
<symbol id="icon-bug_report" viewBox="0 0 24 24">
<path d="M14.016 12v-2.016h-4.031v2.016h4.031zM14.016 15.984v-1.969h-4.031v1.969h4.031zM20.016 8.016v1.969h-2.109q0.094 0.656 0.094 1.031v0.984h2.016v2.016h-2.016v0.984q0 0.328-0.094 0.984h2.109v2.016h-2.813q-0.797 1.359-2.18 2.18t-3.023 0.82-3.023-0.82-2.18-2.18h-2.813v-2.016h2.109q-0.094-0.656-0.094-0.984v-0.984h-2.016v-2.016h2.016v-0.984q0-0.375 0.094-1.031h-2.109v-1.969h2.813q0.703-1.172 1.828-1.969l-1.641-1.641 1.406-1.406 2.203 2.156q0.703-0.141 1.406-0.141t1.406 0.141l2.203-2.156 1.406 1.406-1.641 1.641q1.172 0.797 1.828 1.969h2.813z"></path>
</symbol>
<symbol id="icon-build" viewBox="0 0 24 24">
<path d="M22.688 18.984q0.328 0.188 0.305 0.633t-0.398 0.773l-2.297 2.297q-0.703 0.703-1.406 0l-9.094-9.094q-1.688 0.703-3.586 0.305t-3.305-1.805q-1.5-1.5-1.875-3.563t0.563-3.844l4.406 4.313 3-3-4.313-4.313q1.781-0.844 3.844-0.516t3.563 1.828q1.406 1.406 1.805 3.305t-0.305 3.586z"></path>
</symbol>
<symbol id="icon-check_circle1" viewBox="0 0 24 24">
<path d="M9.984 17.016l9-9-1.406-1.453-7.594 7.594-3.563-3.563-1.406 1.406zM12 2.016q4.125 0 7.055 2.93t2.93 7.055-2.93 7.055-7.055 2.93-7.055-2.93-2.93-7.055 2.93-7.055 7.055-2.93z"></path>
</symbol>
<symbol id="icon-dashboard" viewBox="0 0 24 24">
<path d="M12.984 3h8.016v6h-8.016v-6zM12.984 21v-9.984h8.016v9.984h-8.016zM3 21v-6h8.016v6h-8.016zM3 12.984v-9.984h8.016v9.984h-8.016z"></path>
</symbol>
<symbol id="icon-description1" viewBox="0 0 24 24">
<path d="M12.984 9h5.531l-5.531-5.484v5.484zM15.984 14.016v-2.016h-7.969v2.016h7.969zM15.984 18v-2.016h-7.969v2.016h7.969zM14.016 2.016l6 6v12q0 0.797-0.609 1.383t-1.406 0.586h-12q-0.797 0-1.406-0.586t-0.609-1.383l0.047-16.031q0-0.797 0.586-1.383t1.383-0.586h8.016z"></path>
</symbol>
<symbol id="icon-done" viewBox="0 0 24 24">
<path d="M9 16.219l10.594-10.641 1.406 1.406-12 12-5.578-5.578 1.359-1.406z"></path>
</symbol>
<symbol id="icon-done_all" viewBox="0 0 24 24">
<path d="M0.422 13.406l1.406-1.406 5.578 5.578-1.406 1.406zM22.219 5.578l1.453 1.406-12 12-5.625-5.578 1.453-1.406 4.172 4.172zM18 6.984l-6.328 6.375-1.406-1.406 6.328-6.375z"></path>
</symbol>
<symbol id="icon-help11" viewBox="0 0 24 24">
<path d="M15.047 11.25q0.938-0.938 0.938-2.25 0-1.641-1.172-2.813t-2.813-1.172-2.813 1.172-1.172 2.813h1.969q0-0.797 0.609-1.406t1.406-0.609 1.406 0.609 0.609 1.406-0.609 1.406l-1.219 1.266q-1.172 1.266-1.172 2.813v0.516h1.969q0-1.547 1.172-2.813zM12.984 18.984v-1.969h-1.969v1.969h1.969zM12 2.016q4.125 0 7.055 2.93t2.93 7.055-2.93 7.055-7.055 2.93-7.055-2.93-2.93-7.055 2.93-7.055 7.055-2.93z"></path>
</symbol>
<symbol id="icon-historyrestore1" viewBox="0 0 24 24">
<path d="M12 8.016h1.5v4.219l3.516 2.109-0.75 1.219-4.266-2.578v-4.969zM12.984 3q3.703 0 6.352 2.625t2.648 6.375-2.648 6.375-6.352 2.625q-1.547 0-3.398-0.773t-2.93-1.852l1.406-1.453q2.063 2.063 4.922 2.063 2.906 0 4.969-2.039t2.063-4.945-2.063-4.945-4.969-2.039-4.945 2.039-2.039 4.945h3l-4.031 4.031-0.094-0.141-3.891-3.891h3q0-3.75 2.648-6.375t6.352-2.625z"></path>
</symbol>
<symbol id="icon-home" viewBox="0 0 24 24">
<path d="M9.984 20.016h-4.969v-8.016h-3l9.984-9 9.984 9h-3v8.016h-4.969v-6h-4.031v6z"></path>
</symbol>
<symbol id="icon-httpslock" viewBox="0 0 24 24">
<path d="M15.094 8.016v-2.016q0-1.266-0.914-2.18t-2.18-0.914-2.18 0.914-0.914 2.18v2.016h6.188zM12 17.016q0.797 0 1.406-0.609t0.609-1.406-0.609-1.406-1.406-0.609-1.406 0.609-0.609 1.406 0.609 1.406 1.406 0.609zM18 8.016q0.797 0 1.406 0.586t0.609 1.383v10.031q0 0.797-0.609 1.383t-1.406 0.586h-12q-0.797 0-1.406-0.586t-0.609-1.383v-10.031q0-0.797 0.609-1.383t1.406-0.586h0.984v-2.016q0-2.063 1.477-3.539t3.539-1.477 3.539 1.477 1.477 3.539v2.016h0.984z"></path>
</symbol>
<symbol id="icon-info1" viewBox="0 0 24 24">
<path d="M12.984 9v-2.016h-1.969v2.016h1.969zM12.984 17.016v-6h-1.969v6h1.969zM12 2.016q4.125 0 7.055 2.93t2.93 7.055-2.93 7.055-7.055 2.93-7.055-2.93-2.93-7.055 2.93-7.055 7.055-2.93z"></path>
</symbol>
<symbol id="icon-info_outline1" viewBox="0 0 24 24">
<path d="M11.016 9v-2.016h1.969v2.016h-1.969zM12 20.016q3.281 0 5.648-2.367t2.367-5.648-2.367-5.648-5.648-2.367-5.648 2.367-2.367 5.648 2.367 5.648 5.648 2.367zM12 2.016q4.125 0 7.055 2.93t2.93 7.055-2.93 7.055-7.055 2.93-7.055-2.93-2.93-7.055 2.93-7.055 7.055-2.93zM11.016 17.016v-6h1.969v6h-1.969z"></path>
</symbol>
<symbol id="icon-lock_open" viewBox="0 0 24 24">
<path d="M18 20.016v-10.031h-12v10.031h12zM18 8.016q0.797 0 1.406 0.586t0.609 1.383v10.031q0 0.797-0.609 1.383t-1.406 0.586h-12q-0.797 0-1.406-0.586t-0.609-1.383v-10.031q0-0.797 0.609-1.383t1.406-0.586h9.094v-2.016q0-1.266-0.914-2.18t-2.18-0.914-2.18 0.914-0.914 2.18h-1.922q0-2.063 1.477-3.539t3.539-1.477 3.539 1.477 1.477 3.539v2.016h0.984zM12 17.016q-0.797 0-1.406-0.609t-0.609-1.406 0.609-1.406 1.406-0.609 1.406 0.609 0.609 1.406-0.609 1.406-1.406 0.609z"></path>
</symbol>
<symbol id="icon-lock_outline" viewBox="0 0 24 24">
<path d="M18 20.016v-10.031h-12v10.031h12zM8.906 6v2.016h6.188v-2.016q0-1.266-0.914-2.18t-2.18-0.914-2.18 0.914-0.914 2.18zM18 8.016q0.797 0 1.406 0.586t0.609 1.383v10.031q0 0.797-0.609 1.383t-1.406 0.586h-12q-0.797 0-1.406-0.586t-0.609-1.383v-10.031q0-0.797 0.609-1.383t1.406-0.586h0.984v-2.016q0-2.063 1.477-3.539t3.539-1.477 3.539 1.477 1.477 3.539v2.016h0.984zM12 17.016q-0.797 0-1.406-0.609t-0.609-1.406 0.609-1.406 1.406-0.609 1.406 0.609 0.609 1.406-0.609 1.406-1.406 0.609z"></path>
</symbol>
<symbol id="icon-perm_contact_calendar1" viewBox="0 0 24 24">
<path d="M18 18v-0.984q0-1.359-2.063-2.227t-3.938-0.867-3.938 0.867-2.063 2.227v0.984h12zM12 6q-1.219 0-2.109 0.891t-0.891 2.109 0.891 2.109 2.109 0.891 2.109-0.891 0.891-2.109-0.891-2.109-2.109-0.891zM18.984 3q0.797 0 1.406 0.609t0.609 1.406v13.969q0 0.797-0.609 1.406t-1.406 0.609h-13.969q-0.844 0-1.43-0.586t-0.586-1.43v-13.969q0-0.844 0.586-1.43t1.43-0.586h0.984v-2.016h2.016v2.016h7.969v-2.016h2.016v2.016h0.984z"></path>
</symbol>
<symbol id="icon-settings11" viewBox="0 0 24 24">
<path d="M12 15.516q1.453 0 2.484-1.031t1.031-2.484-1.031-2.484-2.484-1.031-2.484 1.031-1.031 2.484 1.031 2.484 2.484 1.031zM19.453 12.984l2.109 1.641q0.328 0.234 0.094 0.656l-2.016 3.469q-0.188 0.328-0.609 0.188l-2.484-0.984q-0.984 0.703-1.688 0.984l-0.375 2.625q-0.094 0.422-0.469 0.422h-4.031q-0.375 0-0.469-0.422l-0.375-2.625q-0.891-0.375-1.688-0.984l-2.484 0.984q-0.422 0.141-0.609-0.188l-2.016-3.469q-0.234-0.422 0.094-0.656l2.109-1.641q-0.047-0.328-0.047-0.984t0.047-0.984l-2.109-1.641q-0.328-0.234-0.094-0.656l2.016-3.469q0.188-0.328 0.609-0.188l2.484 0.984q0.984-0.703 1.688-0.984l0.375-2.625q0.094-0.422 0.469-0.422h4.031q0.375 0 0.469 0.422l0.375 2.625q0.891 0.375 1.688 0.984l2.484-0.984q0.422-0.141 0.609 0.188l2.016 3.469q0.234 0.422-0.094 0.656l-2.109 1.641q0.047 0.328 0.047 0.984t-0.047 0.984z"></path>
</symbol>
<symbol id="icon-speaker_notes" viewBox="0 0 24 24">
<path d="M18 8.016v-2.016h-8.016v2.016h8.016zM18 11.016v-2.016h-8.016v2.016h8.016zM15 14.016v-2.016h-5.016v2.016h5.016zM8.016 8.016v-2.016h-2.016v2.016h2.016zM8.016 11.016v-2.016h-2.016v2.016h2.016zM8.016 14.016v-2.016h-2.016v2.016h2.016zM20.016 2.016q0.797 0 1.383 0.586t0.586 1.383v12q0 0.797-0.586 1.406t-1.383 0.609h-14.016l-3.984 3.984v-18q0-0.797 0.586-1.383t1.383-0.586h16.031z"></path>
</symbol>
<symbol id="icon-update1" viewBox="0 0 24 24">
<path d="M12.516 8.016v4.219l3.469 2.109-0.703 1.219-4.266-2.578v-4.969h1.5zM21 10.125h-6.797l2.766-2.813q-2.063-2.063-4.945-2.086t-4.945 1.992q-0.844 0.844-1.453 2.273t-0.609 2.602 0.609 2.602 1.453 2.273 2.297 1.453 2.625 0.609 2.648-0.609 2.32-1.453q2.016-2.016 2.016-4.875h2.016q0 3.703-2.625 6.281-2.625 2.625-6.375 2.625t-6.375-2.625q-2.625-2.578-2.625-6.258t2.625-6.305q1.078-1.078 2.93-1.852t3.398-0.773 3.398 0.773 2.93 1.852l2.719-2.813v7.125z"></path>
</symbol>
<symbol id="icon-watch_later1" viewBox="0 0 24 24">
<path d="M16.219 16.219l0.797-1.313-4.5-2.719v-5.203h-1.5v6zM12 2.016q4.125 0 7.055 2.93t2.93 7.055-2.93 7.055-7.055 2.93-7.055-2.93-2.93-7.055 2.93-7.055 7.055-2.93z"></path>
</symbol>
<symbol id="icon-calendar_today" viewBox="0 0 24 24">
<path d="M20.016 21v-12.984h-16.031v12.984h16.031zM20.016 3q0.797 0 1.383 0.609t0.586 1.406v15.984q0 0.797-0.586 1.406t-1.383 0.609h-16.031q-0.797 0-1.383-0.609t-0.586-1.406v-15.984q0-0.797 0.586-1.406t1.383-0.609h1.031v-2.016h1.969v2.016h10.031v-2.016h1.969v2.016h1.031z"></path>
</symbol>
<symbol id="icon-edit_off" viewBox="0 0 24 24">
<path d="M2.016 5.016l1.969-2.016 16.031 15.984-2.016 2.016-5.625-5.625-5.625 5.625h-3.75v-3.75l5.625-5.625zM20.719 5.625q0.281 0.281 0.281 0.703 0 0.375-0.281 0.656l-1.828 1.875-3.75-3.75 1.828-1.828q0.281-0.281 0.703-0.281t0.703 0.281zM12.141 8.109l1.922-1.922 3.75 3.75-1.922 1.922z"></path>
</symbol>
<symbol id="icon-tag1" viewBox="0 0 24 24">
<path d="M14.016 14.016v-4.031h-4.031v4.031h4.031zM20.016 9.984h-4.031v4.031h4.031v1.969h-4.031v4.031h-1.969v-4.031h-4.031v4.031h-1.969v-4.031h-4.031v-1.969h4.031v-4.031h-4.031v-1.969h4.031v-4.031h1.969v4.031h4.031v-4.031h1.969v4.031h4.031v1.969z"></path>
</symbol>
<symbol id="icon-apartment" viewBox="0 0 24 24">
<path d="M18.984 15v-2.016h-1.969v2.016h1.969zM18.984 18.984v-1.969h-1.969v1.969h1.969zM15 6.984v-1.969h-2.016v1.969h2.016zM15 11.016v-2.016h-2.016v2.016h2.016zM15 15v-2.016h-2.016v2.016h2.016zM11.016 6.984v-1.969h-2.016v1.969h2.016zM11.016 11.016v-2.016h-2.016v2.016h2.016zM11.016 15v-2.016h-2.016v2.016h2.016zM6.984 11.016v-2.016h-1.969v2.016h1.969zM6.984 15v-2.016h-1.969v2.016h1.969zM6.984 18.984v-1.969h-1.969v1.969h1.969zM17.016 11.016h3.984v9.984h-8.016v-3.984h-1.969v3.984h-8.016v-14.016h3.984v-3.984h10.031v8.016z"></path>
</symbol>
<symbol id="icon-badge1" viewBox="0 0 24 24">
<path d="M18 13.5v-1.5h-3.984v1.5h3.984zM18 16.5v-1.5h-3.984v1.5h3.984zM12.984 9v-5.016h-1.969v5.016h1.969zM12 18v-0.75q0-0.656-1.031-1.078t-1.969-0.422-1.969 0.422-1.031 1.078v0.75h6zM9 12q-0.656 0-1.078 0.422t-0.422 1.078 0.422 1.078 1.078 0.422 1.078-0.422 0.422-1.078-0.422-1.078-1.078-0.422zM20.016 6.984q0.797 0 1.383 0.609t0.586 1.406v11.016q0 0.797-0.586 1.383t-1.383 0.586h-16.031q-0.797 0-1.383-0.586t-0.586-1.383v-11.016q0-0.797 0.586-1.406t1.383-0.609h5.016v-3q0-0.797 0.609-1.383t1.406-0.586h1.969q0.797 0 1.406 0.586t0.609 1.383v3h5.016z"></path>
</symbol>
<symbol id="icon-kitchen" viewBox="0 0 24 24">
<path d="M8.016 12h1.969v5.016h-1.969v-5.016zM8.016 5.016h1.969v3h-1.969v-3zM18 9v-5.016h-12v5.016h12zM18 20.016v-9.047h-12v9.047h12zM18 2.016q0.844 0 1.43 0.563t0.586 1.406v16.031q0 0.797-0.609 1.383t-1.406 0.586h-12q-0.797 0-1.406-0.586t-0.609-1.383v-16.031q0-0.844 0.586-1.406t1.43-0.563h12z"></path>
</symbol>
<symbol id="icon-comment1" viewBox="0 0 28 28">
<path d="M28 14c0 5.531-6.266 10-14 10-0.766 0-1.531-0.047-2.266-0.125-2.047 1.813-4.484 3.094-7.187 3.781-0.562 0.156-1.172 0.266-1.781 0.344-0.344 0.031-0.672-0.219-0.75-0.594v-0.016c-0.078-0.391 0.187-0.625 0.422-0.906 0.984-1.109 2.109-2.047 2.844-4.656-3.219-1.828-5.281-4.656-5.281-7.828 0-5.516 6.266-10 14-10s14 4.469 14 10z"></path>
</symbol>
<symbol id="icon-comments" viewBox="0 0 28 28">
<path d="M22 12c0 4.422-4.922 8-11 8-0.953 0-1.875-0.094-2.75-0.25-1.297 0.922-2.766 1.594-4.344 2-0.422 0.109-0.875 0.187-1.344 0.25h-0.047c-0.234 0-0.453-0.187-0.5-0.453v0c-0.063-0.297 0.141-0.484 0.313-0.688 0.609-0.688 1.297-1.297 1.828-2.594-2.531-1.469-4.156-3.734-4.156-6.266 0-4.422 4.922-8 11-8s11 3.578 11 8zM28 16c0 2.547-1.625 4.797-4.156 6.266 0.531 1.297 1.219 1.906 1.828 2.594 0.172 0.203 0.375 0.391 0.313 0.688v0c-0.063 0.281-0.297 0.484-0.547 0.453-0.469-0.063-0.922-0.141-1.344-0.25-1.578-0.406-3.047-1.078-4.344-2-0.875 0.156-1.797 0.25-2.75 0.25-2.828 0-5.422-0.781-7.375-2.063 0.453 0.031 0.922 0.063 1.375 0.063 3.359 0 6.531-0.969 8.953-2.719 2.609-1.906 4.047-4.484 4.047-7.281 0-0.812-0.125-1.609-0.359-2.375 2.641 1.453 4.359 3.766 4.359 6.375z"></path>
</symbol>
<symbol id="icon-comment-o" viewBox="0 0 28 28">
<path d="M14 6c-6.5 0-12 3.656-12 8 0 2.328 1.563 4.547 4.266 6.078l1.359 0.781-0.422 1.5c-0.297 1.109-0.688 1.969-1.094 2.688 1.578-0.656 3.016-1.547 4.297-2.672l0.672-0.594 0.891 0.094c0.672 0.078 1.359 0.125 2.031 0.125 6.5 0 12-3.656 12-8s-5.5-8-12-8zM28 14c0 5.531-6.266 10-14 10-0.766 0-1.531-0.047-2.266-0.125-2.047 1.813-4.484 3.094-7.187 3.781-0.562 0.156-1.172 0.266-1.781 0.344h-0.078c-0.313 0-0.594-0.25-0.672-0.594v-0.016c-0.078-0.391 0.187-0.625 0.422-0.906 0.984-1.109 2.109-2.047 2.844-4.656-3.219-1.828-5.281-4.656-5.281-7.828 0-5.531 6.266-10 14-10v0c7.734 0 14 4.469 14 10z"></path>
</symbol>
<symbol id="icon-comments-o" viewBox="0 0 28 28">
<path d="M11 6c-4.875 0-9 2.75-9 6 0 1.719 1.156 3.375 3.156 4.531l1.516 0.875-0.547 1.313c0.328-0.187 0.656-0.391 0.969-0.609l0.688-0.484 0.828 0.156c0.781 0.141 1.578 0.219 2.391 0.219 4.875 0 9-2.75 9-6s-4.125-6-9-6zM11 4c6.078 0 11 3.578 11 8s-4.922 8-11 8c-0.953 0-1.875-0.094-2.75-0.25-1.297 0.922-2.766 1.594-4.344 2-0.422 0.109-0.875 0.187-1.344 0.25h-0.047c-0.234 0-0.453-0.187-0.5-0.453v0c-0.063-0.297 0.141-0.484 0.313-0.688 0.609-0.688 1.297-1.297 1.828-2.594-2.531-1.469-4.156-3.734-4.156-6.266 0-4.422 4.922-8 11-8zM23.844 22.266c0.531 1.297 1.219 1.906 1.828 2.594 0.172 0.203 0.375 0.391 0.313 0.688v0c-0.063 0.281-0.297 0.484-0.547 0.453-0.469-0.063-0.922-0.141-1.344-0.25-1.578-0.406-3.047-1.078-4.344-2-0.875 0.156-1.797 0.25-2.75 0.25-2.828 0-5.422-0.781-7.375-2.063 0.453 0.031 0.922 0.063 1.375 0.063 3.359 0 6.531-0.969 8.953-2.719 2.609-1.906 4.047-4.484 4.047-7.281 0-0.812-0.125-1.609-0.359-2.375 2.641 1.453 4.359 3.766 4.359 6.375 0 2.547-1.625 4.797-4.156 6.266z"></path>
</symbol>
</defs>
</svg>
